<svg xmlns="http://www.w3.org/2000/svg" width="318" height="130" viewBox="0 0 318 130" version="1.1"><path d="M 237.200 47.200 C 234.379 50.021, 237.130 54.728, 240.901 53.531 C 241.999 53.183, 243.183 51.999, 243.531 50.901 C 244.728 47.130, 240.021 44.379, 237.200 47.200 M 124.415 48.421 C 118.006 51.212, 114.056 59.782, 115.946 66.798 C 116.970 70.600, 120.586 74.772, 124.684 76.878 C 129.578 79.392, 141.277 77.046, 142.731 73.259 C 143.032 72.475, 142.359 70.915, 141.236 69.792 C 139.322 67.877, 139.050 67.851, 136.875 69.375 C 135.599 70.269, 132.888 71, 130.850 71 C 123.690 71, 120.232 61.677, 125.455 56.455 C 128.317 53.592, 133.427 53.171, 136.087 55.578 C 137.678 57.019, 138.061 57.006, 140.461 55.434 C 143.832 53.225, 143.388 51.209, 139.016 48.867 C 134.962 46.695, 128.811 46.508, 124.415 48.421 M 167.173 48.750 C 166.679 49.712, 164.781 54.720, 162.955 59.878 L 159.634 69.257 156.067 58.878 L 152.500 48.500 148.313 48.196 L 144.126 47.891 149.530 61.987 C 152.502 69.740, 155.200 76.515, 155.526 77.042 C 155.852 77.569, 157.859 78, 159.987 78 C 164.325 78, 163.413 79.634, 171.522 57.329 C 174.337 49.587, 174.621 48.069, 173.346 47.579 C 170.566 46.513, 168.078 46.984, 167.173 48.750 M 177.667 47.667 C 177.300 48.033, 177 55.008, 177 63.167 L 177 78 180.500 78 L 184 78 184 62.500 L 184 47 181.167 47 C 179.608 47, 178.033 47.300, 177.667 47.667 M 273 62.500 L 273 78 276.500 78 L 280 78 280 70.700 C 280 63.146, 280.934 61, 284.225 61 C 286.684 61, 288 64.857, 288 72.065 C 288 77.993, 288.004 78, 291 78 L 294 78 294 68.500 C 294 60.333, 293.719 58.719, 292 57 C 289.736 54.736, 283.152 54.248, 281.200 56.200 C 280.267 57.133, 280 56.244, 280 52.200 L 280 47 276.500 47 L 273 47 273 62.500 M 300 52.437 C 300 54.333, 299.480 55, 298 55 C 296.444 55, 296 55.667, 296 58 C 296 60.333, 296.444 61, 298 61 C 299.805 61, 300 61.667, 300 67.845 C 300 76.166, 301.645 78.310, 307.652 77.816 C 311.190 77.525, 311.500 77.259, 311.500 74.501 C 311.500 72.170, 311.055 71.502, 309.500 71.501 C 307.793 71.500, 307.456 70.732, 307.198 66.250 C 306.906 61.176, 306.983 61, 309.514 61 C 311.781 61, 312.090 60.630, 311.816 58.250 C 311.593 56.307, 310.858 55.409, 309.311 55.189 C 307.948 54.994, 307.006 54.052, 306.811 52.689 C 306.576 51.032, 305.711 50.424, 303.250 50.187 C 300.347 49.907, 300 50.147, 300 52.437 M 189 66.500 L 189 78 192.500 78 L 196 78 196 71.434 C 196 64.044, 197.167 61, 200 61 C 202.833 61, 204 64.044, 204 71.434 L 204 78 207.500 78 L 211 78 211 69.950 C 211 61.565, 209.483 56.783, 206.455 55.621 C 204.013 54.684, 200.104 54.874, 197.934 56.035 C 196.601 56.749, 196 56.749, 196 56.035 C 196 55.466, 194.425 55, 192.500 55 L 189 55 189 66.500 M 216.174 57.314 C 211.659 62.120, 214.112 66.863, 222.250 69.063 C 224.313 69.621, 226 70.510, 226 71.039 C 226 72.357, 221.337 72.251, 218.763 70.873 C 217.044 69.953, 216.415 70.080, 215.329 71.565 C 213.384 74.225, 213.687 75.536, 216.547 76.839 C 221.112 78.920, 227.788 78.302, 230.545 75.545 C 235.371 70.720, 232.585 64.597, 225.014 63.386 C 219.408 62.490, 219.861 60.611, 225.529 61.250 C 229.317 61.677, 230.230 61.439, 231.110 59.795 C 231.689 58.713, 232.013 57.703, 231.831 57.550 C 227.875 54.217, 219.207 54.087, 216.174 57.314 M 236 66.500 L 236 78 239.500 78 L 243 78 243 66.500 L 243 55 239.500 55 L 236 55 236 66.500 M 249.461 57.448 C 241.191 65.718, 250.110 81.293, 260.066 75.965 C 261.593 75.147, 262 75.257, 262 76.486 C 262 79.092, 257.390 80.586, 253.680 79.182 C 250.944 78.147, 250.323 78.219, 249.237 79.699 C 248.542 80.645, 248.127 81.887, 248.315 82.460 C 249.030 84.631, 253.589 86.077, 258.441 85.671 C 262.383 85.341, 263.925 84.648, 266.074 82.243 C 268.526 79.499, 268.831 78.244, 269.488 68.189 C 269.884 62.116, 269.929 56.694, 269.586 56.139 C 269.243 55.585, 265.111 55.117, 260.402 55.099 C 252.697 55.071, 251.604 55.305, 249.461 57.448 M 254.035 62.934 C 252.583 65.647, 252.745 67.602, 254.571 69.429 C 256.871 71.728, 259.724 71.350, 261.592 68.500 C 263.109 66.184, 263.109 65.816, 261.592 63.500 C 259.603 60.465, 255.520 60.159, 254.035 62.934" stroke="none" fill="#092350" fill-rule="evenodd"/><path d="M 9.228 8.230 C 7.979 8.832, 6.729 10.264, 6.451 11.413 C 6.174 12.561, 6.071 36.956, 6.223 65.625 L 6.500 117.751 19 106.892 C 25.875 100.920, 32.293 96.026, 33.262 96.016 C 34.231 96.007, 38.155 98.082, 41.981 100.626 L 48.938 105.252 54.719 100.226 C 57.898 97.461, 64.063 91.528, 68.419 87.041 L 76.337 78.883 73.169 76.956 C 71.426 75.897, 70 74.633, 70 74.148 C 70 73.338, 86.050 67, 88.102 67 C 88.596 67, 89 71.500, 89 77 C 89 84.827, 88.701 87, 87.622 87 C 86.865 87, 85.685 86.325, 85 85.500 C 84.315 84.675, 83.428 84, 83.029 84 C 82.629 84, 75.432 90.525, 67.034 98.500 C 56.965 108.062, 51.023 113, 49.586 113 C 48.387 113, 44.317 110.971, 40.542 108.491 C 33.888 104.121, 33.613 104.036, 31.588 105.734 C 23.661 112.383, 13 122.339, 13 123.094 C 13 123.621, 30.773 124, 55.500 124 C 96.667 124, 98.063 123.937, 100 122 C 101.939 120.061, 102 118.667, 102 76.500 L 102 33 91.073 33 C 80.459 33, 80.086 32.924, 78.073 30.365 C 76.279 28.084, 76 26.337, 76 17.365 L 76 7 43.750 7.068 C 22.574 7.112, 10.720 7.511, 9.228 8.230 M 78.015 18.250 C 78.032 28.140, 78.303 29.070, 81.684 30.850 C 84.319 32.237, 100.313 32.415, 99.833 31.052 C 99.258 29.418, 79.901 9, 78.927 9 C 78.417 9, 78.007 13.162, 78.015 18.250 M 23.420 21.829 C 15.099 27.056, 17.024 38.672, 26.774 42.071 C 29.401 42.987, 30.626 42.858, 33.731 41.341 C 35.804 40.329, 37.275 39.050, 37 38.500 C 36.486 37.472, 35.795 37.480, 30.309 38.573 C 23.812 39.869, 19.241 30.759, 24 26 C 26.239 23.761, 31.899 23.299, 33.800 25.200 C 34.733 26.133, 35.268 26.132, 36.207 25.193 C 38.023 23.377, 35.091 20.946, 30.388 20.371 C 27.635 20.034, 25.601 20.459, 23.420 21.829 M 41.003 20.750 C 41.004 21.163, 42.710 26, 44.794 31.500 C 48.122 40.286, 48.892 41.537, 51.136 41.801 C 53.506 42.081, 53.947 41.431, 57.244 32.801 C 59.198 27.686, 61.131 22.673, 61.539 21.662 C 62.146 20.159, 61.870 19.886, 60.022 20.162 C 58.190 20.436, 57.200 22.060, 54.788 28.750 C 53.153 33.288, 51.499 37, 51.113 37 C 50.728 37, 49.167 33.175, 47.644 28.500 C 45.433 21.710, 44.486 20, 42.938 20 C 41.872 20, 41.001 20.337, 41.003 20.750 M 21.250 54.716 C 19.462 54.942, 18 55.554, 18 56.077 C 18 56.663, 30.540 56.926, 50.750 56.764 C 71.741 56.595, 83.500 56.141, 83.500 55.500 C 83.500 54.517, 28.324 53.822, 21.250 54.716 M 18.249 69.250 C 18.562 70.189, 24.183 70.567, 40.833 70.769 C 60.112 71.003, 63 70.840, 63 69.519 C 63 68.205, 59.950 68, 40.417 68 C 22.795 68, 17.925 68.275, 18.249 69.250 M 18.513 81.979 C 18.161 82.548, 18.489 83.251, 19.242 83.539 C 21.716 84.489, 45.007 83.549, 45.007 82.500 C 45.006 81.115, 19.359 80.610, 18.513 81.979 M 117.463 89.237 C 117.149 90.055, 117.029 93.374, 117.196 96.612 L 117.500 102.500 121.627 102.801 C 125.940 103.117, 129.662 100.880, 128.352 98.760 C 127.985 98.166, 127.751 95.977, 127.833 93.894 C 128.004 89.543, 127.758 89.305, 122.171 88.411 C 118.991 87.903, 117.901 88.094, 117.463 89.237 M 141.459 89.067 C 140.539 90.556, 141.606 91.365, 143.520 90.631 C 144.404 90.292, 144.847 89.561, 144.504 89.007 C 143.694 87.696, 142.289 87.723, 141.459 89.067 M 146.688 88.646 C 146.309 89.024, 146 92.408, 146 96.167 C 146 102.382, 146.185 103, 148.044 103 C 149.940 103, 150.066 102.480, 149.794 95.830 C 149.525 89.276, 148.478 86.855, 146.688 88.646 M 159 90.406 C 159 92.333, 158.595 92.707, 156.967 92.281 C 154.503 91.637, 151 94.537, 151 97.221 C 151 101.360, 152.855 103, 157.535 103 L 162 103 162 95.500 C 162 89.500, 161.700 88, 160.500 88 C 159.582 88, 159 88.934, 159 90.406 M 168.603 88.833 C 168.320 89.291, 169.194 91.292, 170.544 93.280 C 171.895 95.268, 173 98.268, 173 99.947 C 173 101.994, 173.494 103, 174.500 103 C 175.524 103, 176.002 101.969, 176.007 99.750 C 176.010 97.963, 176.907 95.150, 178 93.500 C 179.093 91.850, 179.990 89.938, 179.993 89.250 C 180.005 86.989, 178.005 87.943, 176.073 91.120 L 174.176 94.240 172.562 91.120 C 170.961 88.024, 169.592 87.233, 168.603 88.833 M 217 95.500 C 217 103.055, 218.250 105.500, 219.336 100.070 C 219.776 97.868, 220.560 97.061, 222.492 96.820 C 226.249 96.352, 226.042 94.552, 222.189 94.182 C 218.012 93.781, 218.473 91.617, 222.827 91.187 C 226.516 90.822, 226.994 89.500, 223.750 88.630 C 217.417 86.933, 217 87.357, 217 95.500 M 238.634 91.511 C 237.978 93.221, 238.833 98.622, 240.176 101.250 C 240.668 102.213, 241.955 103, 243.035 103 C 245.345 103, 245.664 101.192, 243.500 100.362 C 242.675 100.045, 242 98.709, 242 97.393 C 242 95.933, 242.585 95, 243.500 95 C 244.325 95, 245 94.325, 245 93.500 C 245 92.675, 244.325 92, 243.500 92 C 242.675 92, 242 91.550, 242 91 C 242 89.422, 239.277 89.835, 238.634 91.511 M 121 92.833 C 121 94.334, 121.494 94.684, 123.041 94.279 C 125.384 93.666, 125.142 91.657, 122.667 91.177 C 121.563 90.963, 121 91.522, 121 92.833 M 130 96.378 C 130 101.460, 131.311 102.914, 135.779 102.787 C 138.994 102.696, 139 102.686, 139 97.348 C 139 94.407, 138.550 92, 138 92 C 137.450 92, 137 93.088, 137 94.418 C 137 97.870, 136.005 100, 134.393 100 C 133.434 100, 133 98.752, 133 96 C 133 93.111, 132.583 92, 131.500 92 C 130.395 92, 130 93.153, 130 96.378 M 141.393 93.418 C 140.502 95.740, 141.488 102.329, 142.791 102.764 C 143.640 103.047, 144 101.504, 144 97.583 C 144 92.333, 142.642 90.163, 141.393 93.418 M 181.200 93.200 C 180.540 93.860, 180 95.795, 180 97.500 C 180 101.283, 181.561 103, 185 103 C 188.478 103, 190 101.276, 190 97.335 C 190 95.131, 189.372 93.734, 188.066 93.035 C 185.493 91.658, 182.674 91.726, 181.200 93.200 M 192.194 97.148 L 192.500 102.500 196.750 102.807 L 201 103.115 201 97.557 C 201 93.284, 200.653 92, 199.500 92 C 198.417 92, 198 93.111, 198 96 C 198 101.347, 195.258 101.628, 194.810 96.327 C 194.640 94.307, 193.912 92.461, 193.194 92.225 C 192.205 91.900, 191.963 93.094, 192.194 97.148 M 203 97.500 C 203 101.722, 203.348 103, 204.500 103 C 205.545 103, 206 101.948, 206 99.535 C 206 97.078, 206.590 95.755, 208.028 94.985 C 210.706 93.552, 209.620 92, 205.941 92 C 203.043 92, 203 92.080, 203 97.500 M 227 96.378 C 227 101.585, 228.606 103.258, 233.185 102.818 C 236.446 102.505, 236.500 102.420, 236.500 97.583 C 236.500 94.539, 236.024 92.508, 235.250 92.250 C 234.411 91.970, 234 92.970, 234 95.294 C 234 98.647, 231.996 101.663, 230.658 100.325 C 230.296 99.963, 230 97.942, 230 95.833 C 230 93.093, 229.572 92, 228.500 92 C 227.395 92, 227 93.153, 227 96.378 M 247.194 97.148 L 247.500 102.500 251.750 102.807 L 256 103.115 256 97.557 C 256 93.284, 255.653 92, 254.500 92 C 253.417 92, 253 93.111, 253 96 C 253 101.347, 250.258 101.628, 249.810 96.327 C 249.640 94.307, 248.912 92.461, 248.194 92.225 C 247.205 91.900, 246.963 93.094, 247.194 97.148 M 258 97.617 C 258 101.735, 258.352 103, 259.500 103 C 260.545 103, 261 101.948, 261 99.535 C 261 97.046, 261.588 95.756, 263.086 94.954 C 265.653 93.580, 264.812 92.577, 260.931 92.381 C 258.034 92.236, 258 92.297, 258 97.617 M 266.200 93.200 C 265.540 93.860, 265 95.795, 265 97.500 C 265 101.283, 266.561 103, 270 103 C 273.341 103, 275 101.299, 275 97.871 C 275 93.045, 269.353 90.047, 266.200 93.200 M 154.364 96.493 C 154.018 97.396, 154.214 98.614, 154.800 99.200 C 156.324 100.724, 159.210 99.331, 158.812 97.265 C 158.369 94.963, 155.165 94.407, 154.364 96.493 M 182.718 96.250 C 182.005 98.240, 183.875 100.985, 185.515 100.356 C 187.790 99.483, 187.428 95, 185.083 95 C 184.029 95, 182.965 95.563, 182.718 96.250 M 268.750 95.662 C 269.438 95.940, 270.563 95.940, 271.250 95.662 C 271.938 95.385, 271.375 95.158, 270 95.158 C 268.625 95.158, 268.063 95.385, 268.750 95.662 M 121 98.500 C 121 99.333, 121.889 100, 123 100 C 124.111 100, 125 99.333, 125 98.500 C 125 97.667, 124.111 97, 123 97 C 121.889 97, 121 97.667, 121 98.500 M 268.442 99.906 C 268.750 100.404, 269.902 100.577, 271.001 100.289 C 273.753 99.570, 273.505 99, 270.441 99 C 269.034 99, 268.134 99.408, 268.442 99.906" stroke="none" fill="#1082d5" fill-rule="evenodd"/></svg>