<svg xmlns="http://www.w3.org/2000/svg" width="1272" height="520" viewBox="0 0 1272 520">
<g>
<path d="M 352.50 134.04 C367.35,134.33 384.11,134.67 389.75,134.79 C396.07,134.92 399.34,134.67 399.89,133.92 C401.29,135.05 402.97,136.03 404.05,136.30 C406.50,136.91 406.60,137.23 406.55,144.22 C406.52,148.22 406.14,152.06 405.69,152.75 C405.25,153.44 405.24,154.56 405.69,155.25 C406.13,155.94 406.60,172.70 406.73,192.50 C406.86,212.30 406.98,228.95 407.00,229.50 C407.07,232.50 407.01,260.81 406.93,262.50 C406.87,263.60 406.88,265.17 406.94,266.00 C407.01,266.83 407.29,313.12 407.58,368.87 C408.03,459.02 407.92,470.43 406.56,471.94 C405.71,472.87 404.74,475.18 404.39,477.07 C403.37,482.67 399.22,488.00 395.90,488.00 C394.10,488.00 392.68,488.72 392.00,489.99 C390.95,491.97 389.48,491.99 219.22,492.36 C134.83,492.55 62.53,492.95 46.33,493.30 C49.27,492.60 52.00,491.55 52.00,490.89 C52.00,490.45 55.71,490.35 60.25,490.66 C70.84,491.37 77.63,489.02 85.34,481.97 C92.58,475.36 96.18,467.40 96.18,458.02 L 96.18 451.19 L 103.84 444.42 C111.33,437.80 111.51,437.71 111.82,440.32 C112.12,442.92 112.34,443.00 118.57,443.00 C123.45,443.00 125.00,442.66 125.00,441.58 C125.00,440.48 125.87,440.64 128.89,442.30 C132.22,444.12 133.16,444.25 135.47,443.20 C138.99,441.59 138.20,439.41 134.24,439.80 C132.56,439.97 130.89,439.63 130.53,439.05 C130.11,438.37 131.51,438.00 134.44,438.00 C138.64,438.00 139.00,437.80 139.00,435.50 C139.00,434.12 138.05,432.05 136.90,430.90 C132.95,426.95 125.00,430.77 125.00,436.61 C125.00,438.73 124.55,439.00 121.00,439.00 C117.24,439.00 117.00,438.82 117.00,436.07 C117.00,433.67 118.48,431.79 125.05,425.82 C129.48,421.79 133.47,418.37 133.92,418.21 C134.37,418.05 139.75,421.15 145.87,425.09 C153.80,430.20 157.00,432.83 157.00,434.22 C157.00,435.47 158.08,436.58 160.00,437.31 C163.56,438.65 164.05,440.48 160.61,439.62 C159.16,439.25 157.78,439.56 157.08,440.40 C156.17,441.51 156.55,442.00 159.01,442.85 C162.26,443.99 167.00,442.91 167.00,441.02 C167.00,439.27 169.37,439.89 173.52,442.72 C175.71,444.22 181.00,447.53 185.27,450.08 C191.89,454.04 192.82,454.91 191.52,455.98 C190.68,456.68 190.00,458.73 190.00,460.55 C190.00,465.85 196.59,469.82 200.88,467.10 C202.78,465.89 201.37,464.00 198.56,464.00 C197.29,464.00 195.73,463.38 195.11,462.63 C193.29,460.44 194.87,458.00 198.11,458.00 C199.70,458.00 201.00,457.56 201.00,457.02 C201.00,456.48 202.86,455.09 205.14,453.93 C209.70,451.60 218.86,443.47 254.00,410.56 C277.08,388.94 322.09,345.15 326.79,339.75 C328.10,338.24 329.64,337.00 330.19,337.00 C331.29,337.00 336.89,341.17 343.89,347.21 C349.17,351.77 351.23,351.93 355.08,348.08 L 358.00 345.15 L 358.00 269.11 L 355.78 267.56 C354.56,266.70 352.86,266.00 352.01,266.00 C349.22,266.00 281.45,290.38 279.32,292.15 C277.78,293.43 277.58,298.34 278.96,300.93 C279.49,301.92 284.11,305.56 289.21,309.02 C294.32,312.47 298.90,315.66 299.40,316.10 C301.07,317.58 283.37,336.48 249.79,369.09 C231.43,386.91 211.93,405.59 206.45,410.60 L 196.50 419.70 L 171.00 402.28 C143.83,383.72 139.23,381.04 134.50,381.04 C128.76,381.04 123.33,384.82 99.49,405.36 C76.82,424.90 75.33,426.00 72.50,425.27 C70.85,424.85 66.12,424.54 62.00,424.58 C55.86,424.64 53.44,425.18 48.65,427.54 C37.02,433.27 30.00,444.69 30.00,457.88 C30.00,463.39 29.62,465.03 28.02,466.48 C26.94,467.46 26.36,468.77 26.74,469.38 C27.01,469.82 27.18,471.69 27.20,474.02 C27.16,471.31 26.81,469.48 26.19,468.73 C25.19,467.52 24.94,425.74 24.98,261.51 C25.01,146.47 25.42,55.08 25.90,54.16 C26.38,53.24 27.30,50.03 27.95,47.00 C29.00,42.07 29.71,41.03 34.73,37.00 L 40.34 32.50 L 171.41 32.24 C279.95,32.02 298.61,31.99 302.69,33.14 C302.87,33.53 303.12,34.05 303.44,34.70 C304.77,37.42 305.00,43.36 305.00,74.32 C305.00,114.29 305.17,115.64 311.03,123.04 C312.72,125.17 316.66,128.39 319.80,130.20 L 325.50 133.50 ZM 72.59 227.92 L 75.18 231.00 L 203.09 231.00 C329.12,231.00 331.03,230.97 332.97,229.03 C336.04,225.96 336.57,222.24 334.36,219.28 L 332.45 216.73 L 73.50 217.00 L 71.75 219.11 C69.34,222.02 69.56,224.32 72.59,227.92 ZM 395.98 124.50 L 364.75 124.80 C347.56,124.96 332.00,124.82 330.16,124.48 C325.91,123.71 318.28,116.77 315.87,111.50 C314.22,107.88 314.04,104.26 314.02,73.25 C314.01,49.31 314.33,39.00 315.08,39.00 C315.45,39.00 315.72,38.79 315.81,38.48 C317.58,39.90 319.96,42.33 324.00,46.53 C329.23,51.96 341.27,64.08 350.76,73.45 C360.25,82.83 368.01,91.01 368.01,91.64 C368.00,92.26 371.60,96.31 376.00,100.62 C380.40,104.94 384.00,108.84 384.00,109.29 C384.00,109.74 386.70,112.61 390.00,115.66 C395.03,120.32 395.86,121.32 395.98,124.50 ZM 193.58 167.75 C194.95,169.85 195.76,170.00 205.49,170.00 C215.06,170.00 216.02,169.83 217.05,167.91 C218.46,165.27 250.00,80.97 250.00,79.83 C250.00,79.38 245.71,79.00 240.46,79.00 L 230.93 79.00 L 229.12 83.25 C228.13,85.59 224.27,96.05 220.54,106.50 C216.81,116.95 211.83,130.90 209.47,137.50 C207.10,144.10 204.94,148.82 204.65,148.00 C204.36,147.18 199.77,133.68 194.44,118.00 C189.11,102.32 183.88,87.14 182.81,84.25 L 180.86 79.00 L 170.93 79.00 C165.07,79.00 161.00,79.40 161.00,79.99 C161.00,81.74 192.07,165.43 193.58,167.75 ZM 106.10 170.48 C109.71,171.49 114.53,171.88 120.63,171.64 C128.90,171.32 130.54,170.91 138.13,167.22 C143.25,164.73 148.19,161.42 150.85,158.69 L 155.20 154.22 L 150.49 149.86 C143.63,143.51 143.59,143.50 138.35,147.11 C127.19,154.78 116.45,156.06 106.20,150.94 C96.33,146.01 91.02,138.05 90.24,127.00 C89.13,111.39 97.84,99.39 112.17,96.79 C120.37,95.30 129.07,98.01 139.17,105.20 C140.56,106.19 141.74,105.61 146.42,101.62 C149.49,98.99 152.00,96.26 152.00,95.55 C152.00,93.71 143.95,86.53 139.13,84.07 C129.26,79.03 114.23,77.56 103.93,80.61 C89.94,84.77 80.40,92.58 74.89,104.39 C72.17,110.24 71.61,112.74 71.22,120.95 C70.68,131.99 72.17,138.71 77.26,148.30 C82.52,158.23 94.06,167.10 106.10,170.48 ZM 72.59 281.92 L 75.18 285.00 L 162.15 285.00 C216.98,285.00 249.81,284.64 250.96,284.02 C253.39,282.72 255.25,277.33 254.04,275.07 C253.81,274.65 253.63,274.27 253.39,273.93 C251.25,270.87 244.64,270.94 161.86,270.94 L 73.50 270.93 L 71.75 273.08 C69.34,276.03 69.56,278.32 72.59,281.92 ZM 76.75 337.12 C77.43,337.33 101.02,337.39 129.17,337.25 C174.51,337.03 180.54,336.82 182.11,335.40 C184.79,332.97 185.47,328.36 183.57,325.46 L 181.95 323.00 L 128.31 323.00 C81.45,323.00 72.85,322.85 71.32,326.06 C70.90,326.93 71.00,328.05 71.00,329.48 C71.00,332.54 73.77,336.22 76.75,337.12 ZM 620.59 410.10 C619.55,408.95 617.72,408.00 616.53,408.00 C615.35,408.00 613.05,406.62 611.44,404.93 C608.52,401.89 608.50,401.77 608.50,390.00 C608.50,378.23 608.52,378.11 611.44,375.07 C613.05,373.38 615.21,372.00 616.24,372.00 C617.26,372.00 619.81,371.02 621.91,369.81 L 625.71 367.62 L 628.49 369.81 C631.70,372.34 635.22,372.64 636.97,370.54 C637.63,369.74 638.39,367.15 638.65,364.79 C639.49,357.15 639.93,356.00 642.02,356.00 C643.95,356.00 644.00,356.75 644.00,383.44 C644.00,400.16 643.62,411.12 643.03,411.48 C642.49,411.81 641.27,411.17 640.30,410.04 C638.22,407.60 633.46,407.35 632.20,409.61 C631.67,410.55 629.49,411.42 626.90,411.71 C623.30,412.11 622.15,411.82 620.59,410.10 ZM 735.15 410.40 C733.89,409.51 731.67,408.47 730.20,408.08 C728.55,407.64 726.11,405.31 723.77,401.93 C720.28,396.90 720.00,395.98 720.00,389.43 C720.00,382.85 720.22,382.12 723.25,378.81 C729.09,372.42 731.41,371.49 741.22,371.60 L 750.03 371.70 L 755.01 377.10 L 759.99 382.50 L 759.99 389.56 C760.00,395.34 759.59,397.14 757.75,399.56 C753.18,405.55 750.25,408.00 747.67,408.00 C746.09,408.00 744.65,408.79 744.00,410.00 C742.69,412.45 738.37,412.65 735.15,410.40 ZM 868.45 407.73 C868.18,407.03 868.08,395.22 868.23,381.48 L 868.50 356.50 L 884.16 356.23 L 899.82 355.95 L 901.91 358.62 C905.43,363.08 903.56,363.90 889.15,364.22 L 876.50 364.50 L 876.50 379.50 L 887.79 379.78 C900.48,380.10 902.49,381.25 897.40,385.27 C897.16,385.45 896.93,385.62 896.70,385.78 C897.94,384.37 897.84,384.15 896.46,383.62 C892.62,382.15 879.63,383.52 882.17,385.13 C883.07,385.70 882.56,385.97 880.58,385.98 C878.98,385.99 877.93,385.73 878.26,385.41 C878.94,384.73 874.09,379.00 872.83,379.00 C871.85,379.00 871.70,386.37 872.67,387.33 C873.03,387.70 878.14,388.00 884.01,388.00 C884.56,388.00 885.09,388.00 885.59,388.00 C885.57,388.00 885.55,388.00 885.53,388.00 L 876.50 388.50 L 876.22 397.50 C876.01,404.50 875.58,406.78 874.28,407.75 C872.13,409.36 869.07,409.35 868.45,407.73 ZM 695.34 407.94 C693.35,407.20 693.16,406.31 692.84,396.67 C692.58,388.78 692.10,385.75 690.87,384.35 C689.97,383.33 688.90,381.38 688.48,380.00 C688.07,378.62 686.89,376.43 685.86,375.12 C684.84,373.80 684.00,371.91 684.00,370.91 C684.00,369.92 683.30,368.70 682.43,368.22 C681.57,367.74 680.42,365.58 679.88,363.42 C678.25,356.94 678.31,356.50 680.87,356.50 C682.72,356.50 683.88,357.70 686.12,361.89 C687.71,364.86 689.65,367.78 690.44,368.39 C691.23,369.00 692.02,370.82 692.19,372.42 C692.42,374.63 693.21,375.58 695.41,376.31 C698.04,377.18 698.60,376.94 701.11,373.89 C702.64,372.02 704.15,369.48 704.47,368.23 C705.03,366.01 706.21,364.35 710.77,359.35 C715.73,353.90 719.36,360.04 714.55,365.75 C713.15,367.42 712.00,369.22 712.00,369.74 C712.00,370.27 711.10,371.73 710.00,373.00 C708.90,374.27 708.00,376.12 708.00,377.12 C708.00,378.11 707.10,379.41 706.00,380.00 C704.73,380.68 704.00,382.09 704.00,383.88 C704.00,385.43 703.10,387.50 702.00,388.50 C700.29,390.05 700.00,391.58 700.00,399.05 C700.00,408.31 699.41,409.45 695.34,407.94 ZM 633.38 401.57 C635.59,399.77 636.46,397.96 637.11,393.86 C638.15,387.28 636.99,382.64 633.35,378.84 C629.51,374.83 622.64,375.32 618.80,378.48 C620.23,376.87 620.79,376.10 620.04,376.75 C618.27,378.29 616.64,378.39 617.55,376.92 C617.98,376.23 617.36,375.95 615.86,376.17 C614.13,376.41 613.42,377.24 613.18,379.25 C612.80,382.57 614.43,382.80 617.35,380.01 C616.50,381.16 616.00,382.53 616.00,384.06 C616.00,384.80 615.83,385.61 615.56,386.32 C615.56,386.11 615.43,386.00 615.15,386.00 C614.52,386.00 613.99,386.56 613.98,387.25 C613.97,388.19 613.76,388.17 613.13,387.17 C612.06,385.48 611.00,390.35 611.00,396.97 C611.00,400.27 611.55,402.19 612.83,403.35 C613.84,404.26 614.96,404.70 615.33,404.34 C615.70,403.97 616.01,404.30 616.02,405.08 C616.03,406.28 616.17,406.29 616.91,405.11 C617.77,403.75 615.83,397.57 613.91,395.55 C613.30,394.91 613.02,393.81 613.02,392.59 C613.49,394.63 615.06,397.00 617.68,399.52 C621.68,403.35 622.95,403.99 626.43,403.96 C629.18,403.94 631.43,403.17 633.38,401.57 ZM 780.00 409.03 C779.17,408.48 777.35,408.02 775.94,408.02 C774.27,408.01 772.61,406.97 771.19,405.04 C769.16,402.29 769.00,400.96 769.00,386.54 L 769.00 371.00 L 771.30 371.00 C775.48,371.00 776.00,372.65 776.00,385.78 C776.00,398.12 776.01,398.16 778.92,401.08 C782.42,404.58 785.58,404.79 789.11,401.75 C793.84,397.68 796.00,391.19 796.00,381.05 C796.00,372.77 796.16,372.00 797.93,372.00 C800.19,372.00 801.02,374.06 800.82,379.16 C800.75,381.18 801.32,383.46 802.09,384.23 C802.20,384.34 802.31,384.54 802.41,384.82 C802.18,386.27 802.04,390.48 802.06,395.58 C802.10,402.99 802.44,406.72 802.96,405.44 C803.42,404.32 803.58,399.40 803.51,394.59 C803.69,400.09 803.46,405.87 802.67,406.67 C802.21,407.12 798.16,407.78 793.67,408.12 C789.18,408.46 784.60,409.02 783.50,409.38 C782.40,409.74 780.83,409.58 780.00,409.03 ZM 748.20 401.36 L 752.00 398.73 L 752.00 383.69 L 747.83 379.85 C743.13,375.50 739.55,374.92 735.21,377.79 C733.72,378.77 731.60,380.06 730.50,380.65 C726.82,382.61 726.32,398.46 729.90,399.76 C730.78,400.08 732.57,401.16 733.88,402.17 C737.44,404.90 743.60,404.55 748.20,401.36 ZM 1066.04 405.81 C1064.92,404.61 1064.00,403.10 1064.00,402.46 C1064.00,401.83 1063.10,400.27 1062.00,399.00 C1057.84,394.20 1060.21,382.80 1066.86,375.67 C1074.00,368.01 1086.35,368.29 1093.80,376.27 C1095.79,378.40 1096.06,379.60 1095.80,385.12 L 1095.50 391.50 L 1084.41 391.78 C1082.74,391.82 1081.31,391.86 1080.10,391.91 C1081.79,391.76 1083.58,391.03 1085.02,389.75 C1086.41,388.51 1087.16,387.78 1086.70,388.12 C1086.26,388.45 1084.75,388.55 1082.81,388.50 C1084.46,388.34 1086.14,387.99 1087.25,387.52 C1089.22,386.70 1089.57,382.62 1088.02,378.57 C1087.11,376.17 1086.61,376.00 1080.45,376.00 C1074.42,376.00 1073.58,376.27 1070.79,379.06 C1068.13,381.71 1067.87,382.43 1068.82,384.50 C1069.15,385.24 1069.61,385.82 1070.25,386.28 C1068.15,385.27 1067.97,385.56 1066.95,388.65 C1066.32,390.55 1066.09,393.21 1066.42,394.55 C1067.08,397.16 1067.90,397.56 1069.67,395.86 L 1067.63 397.99 L 1071.00 401.00 C1073.97,403.65 1075.08,404.00 1080.56,404.00 C1085.80,404.00 1086.98,403.67 1088.19,401.84 C1089.31,400.16 1090.21,399.84 1092.31,400.36 C1095.64,401.20 1095.66,401.81 1092.46,405.26 C1089.99,407.92 1089.62,408.00 1079.00,408.00 C1069.05,408.00 1067.90,407.80 1066.04,405.81 ZM 477.65 411.03 C475.53,410.62 473.40,409.66 472.91,408.89 C471.49,406.65 471.76,358.64 473.20,357.20 C474.00,356.40 478.48,356.00 486.77,356.00 C498.18,356.00 499.48,356.20 503.43,358.51 C507.36,360.82 507.77,361.44 508.31,365.96 C508.44,367.09 508.53,368.17 508.56,369.21 C508.41,368.57 508.16,368.09 507.81,367.86 C505.60,366.46 505.25,366.85 504.56,371.47 C504.11,374.46 503.09,376.57 501.49,377.83 C499.14,379.68 492.68,380.80 487.28,380.48 C492.47,380.70 498.59,379.68 499.86,378.15 C500.60,377.24 501.87,374.98 502.67,373.12 C504.08,369.88 504.03,369.64 501.35,366.84 C498.62,364.00 498.36,363.94 489.53,364.22 L 480.50 364.50 L 480.50 378.22 C480.22,377.75 480.02,377.15 479.82,376.37 C479.37,374.65 478.37,372.72 477.59,372.08 C475.29,370.17 474.68,375.76 475.47,391.43 C476.23,406.34 477.10,408.92 481.40,409.08 C482.56,409.12 482.94,409.38 482.25,409.66 C481.56,409.94 481.00,410.58 481.00,411.08 C481.00,411.34 481.49,411.55 482.27,411.70 C480.82,411.57 479.28,411.34 477.65,411.03 ZM 1000.95 409.43 C999.60,408.68 997.25,408.05 995.72,408.04 C993.96,408.01 992.75,407.36 992.42,406.25 C992.13,405.29 991.25,403.23 990.45,401.67 C989.40,399.61 989.00,395.16 989.00,385.39 C989.00,381.22 989.03,378.29 989.14,376.23 C989.19,376.86 989.44,376.74 989.95,376.00 C990.70,374.90 990.97,374.85 990.98,375.81 C990.99,376.53 991.45,376.84 992.00,376.50 C992.55,376.16 993.03,376.92 993.07,378.19 C993.14,380.37 993.19,380.39 994.00,378.50 C994.75,376.75 994.89,376.87 995.10,379.50 C995.26,381.35 995.39,381.44 995.60,379.58 C995.67,381.21 995.73,383.18 995.78,385.56 C996.05,398.01 996.15,398.48 998.78,401.17 C1000.95,403.39 1002.42,403.95 1006.06,403.97 C1010.04,404.00 1010.92,403.59 1012.96,400.84 C1015.09,397.96 1015.35,396.38 1015.79,383.31 C1016.25,369.83 1016.97,366.57 1019.04,368.64 C1019.85,369.45 1020.55,379.43 1021.19,399.00 L 1021.46 407.50 L 1015.98 407.77 C1012.97,407.92 1009.60,408.44 1008.50,408.93 C1004.55,410.69 1003.36,410.76 1000.95,409.43 ZM 71.00 428.68 C71.00,430.31 34.11,461.98 33.45,460.92 C32.48,459.35 34.00,449.96 35.95,445.45 C38.32,439.99 43.31,434.49 48.82,431.26 C52.57,429.06 54.90,428.52 62.18,428.18 C67.25,427.93 71.00,428.15 71.00,428.68 ZM 921.00 410.57 C921.00,409.78 920.17,408.87 919.16,408.55 C918.15,408.23 916.23,406.81 914.91,405.40 C912.60,402.95 912.49,402.16 912.17,386.61 C911.89,372.94 912.08,370.18 913.37,369.11 C913.39,369.09 913.41,369.08 913.42,369.06 C912.45,369.91 912.05,372.04 912.17,375.87 L 912.34 381.50 L 912.92 375.58 C913.48,369.91 915.41,366.77 915.73,371.01 C915.81,372.13 915.51,372.81 915.06,372.54 C914.61,372.26 914.23,373.93 914.22,376.26 C914.21,379.44 914.41,380.00 915.03,378.50 C915.68,376.92 915.87,377.29 915.93,380.25 C916.01,384.79 917.05,385.04 918.85,380.97 C919.06,380.51 919.23,380.10 919.35,379.74 C919.63,382.01 919.81,384.99 919.89,388.50 C920.11,398.11 920.40,399.79 922.24,401.75 C926.32,406.11 933.56,403.92 935.96,397.60 C936.53,396.10 937.00,389.55 937.00,383.04 L 937.00 371.22 L 939.66 370.55 C941.38,370.12 942.61,370.34 943.15,371.19 C943.25,371.35 943.34,371.88 943.42,372.71 C943.40,372.67 943.37,372.68 943.34,372.76 C943.06,373.45 942.42,373.76 941.91,373.45 C941.41,373.14 941.00,373.55 941.00,374.36 C941.00,375.17 940.44,376.02 939.75,376.25 C938.85,376.55 938.44,380.23 938.30,389.34 C938.20,396.31 937.83,402.46 937.50,403.01 C937.16,403.55 937.54,404.00 938.33,404.00 C940.40,404.00 941.10,401.48 940.35,396.77 C939.87,393.82 940.01,392.89 940.85,393.41 C941.55,393.84 942.03,393.41 942.07,392.31 C942.13,390.69 942.23,390.71 943.00,392.50 C943.38,393.38 943.64,391.98 943.77,388.62 C943.76,389.24 943.76,389.86 943.75,390.50 L 943.50 408.49 L 936.33 408.16 C929.90,407.86 929.05,408.04 928.05,409.91 C927.91,410.17 927.73,410.40 927.51,410.61 C927.26,410.24 926.18,410.00 924.56,410.00 C922.77,410.00 921.27,410.38 921.03,410.86 C921.01,410.77 921.00,410.67 921.00,410.57 ZM 76.64 484.16 C72.09,486.51 64.88,487.76 60.11,487.02 L 56.71 486.50 L 63.63 480.00 C73.43,470.79 91.70,455.00 92.56,455.00 C93.98,455.00 92.13,465.83 89.98,470.12 C87.18,475.72 81.57,481.62 76.64,484.16 ZM 589.25 411.29 C587.80,410.76 587.62,398.92 588.66,372.61 L 589.32 355.90 L 592.41 356.20 L 595.50 356.50 L 595.77 381.55 L 596.03 406.59 L 594.43 408.09 C595.75,406.69 595.96,404.89 595.82,398.10 L 595.63 389.50 L 594.37 405.50 L 594.07 399.50 C593.90,396.20 593.58,394.40 593.35,395.50 C593.12,396.60 592.45,399.37 591.87,401.65 C591.28,403.93 591.11,406.77 591.49,407.97 C592.10,409.89 592.25,410.05 593.71,408.76 L 593.27 409.17 C591.75,410.59 589.94,411.54 589.25,411.29 ZM 817.20 410.80 C816.35,409.95 816.00,403.77 816.00,389.36 C816.00,367.92 816.57,365.32 820.18,370.27 C821.91,372.64 822.49,372.80 827.46,372.29 C834.16,371.60 836.77,372.37 834.99,374.51 C834.31,375.33 833.11,376.00 832.32,376.00 C831.54,376.00 829.34,377.24 827.45,378.75 C825.00,380.70 824.00,382.31 824.00,384.29 C824.00,385.82 823.28,388.17 822.39,389.52 C821.26,391.25 820.73,394.66 820.60,400.99 C820.40,410.18 819.42,413.02 817.20,410.80 ZM 569.07 410.13 C568.43,408.93 568.00,401.01 568.00,390.26 C568.00,370.82 568.55,368.52 573.06,369.16 L 575.50 369.50 L 575.50 411.50 L 572.82 411.81 C570.95,412.03 569.81,411.51 569.07,410.13 ZM 968.73 410.00 C967.33,408.90 965.54,408.00 964.75,408.00 C964.69,408.00 964.62,408.00 964.56,407.99 C963.75,407.88 962.51,407.12 961.68,406.20 C961.62,406.13 961.56,406.06 961.50,405.98 C960.65,405.09 960.00,404.09 960.02,403.42 C960.02,403.09 960.23,403.09 960.53,403.37 C960.11,401.10 959.92,397.28 959.78,390.45 L 959.54 378.32 C959.27,377.39 958.94,376.80 958.50,376.38 L 956.82 376.19 C951.84,375.61 951.52,373.54 955.89,370.08 C958.23,368.24 960.11,365.76 960.49,364.03 C960.49,364.03 960.49,364.02 960.50,364.02 ZM 113.25 467.34 C113.94,467.62 117.09,467.88 120.25,467.92 C125.30,467.99 126.00,467.76 126.00,466.06 C126.00,464.49 125.19,464.06 121.76,463.81 C118.66,463.58 117.43,463.03 117.19,461.75 C116.91,460.32 117.59,460.00 120.93,460.00 C124.33,460.00 125.00,459.67 125.00,458.00 C125.00,456.33 124.33,456.00 121.00,456.00 C117.67,456.00 117.00,455.67 117.00,454.00 C117.00,452.33 117.67,452.00 121.07,452.00 C124.41,452.00 125.09,451.68 124.81,450.25 C124.44,448.25 120.47,447.50 115.34,448.46 L 112.00 449.09 L 112.00 457.96 C112.00,464.12 112.38,466.99 113.25,467.34 ZM 153.70 467.37 C154.09,467.75 155.10,467.94 155.95,467.78 C157.98,467.39 158.49,462.57 157.02,457.67 C155.93,454.02 155.66,453.82 152.43,454.20 C149.06,454.59 149.00,454.54 149.00,450.80 C149.00,447.41 148.73,447.00 146.50,447.00 L 144.00 447.00 L 144.00 467.00 L 146.50 467.00 C148.80,467.00 149.00,466.63 149.00,462.50 C149.00,458.67 149.30,458.00 151.00,458.00 C152.69,458.00 153.00,458.67 153.00,462.33 C153.00,464.72 153.32,466.98 153.70,467.37 ZM 132.09 490.84 C135.08,491.94 139.68,490.46 141.02,487.96 C145.08,480.38 135.55,473.36 129.45,479.45 C125.48,483.43 126.73,488.86 132.09,490.84 ZM 549.30 406.90 C549.73,407.33 550.50,407.70 551.26,407.88 L 546.52 408.30 C541.91,408.72 537.48,409.58 536.24,410.28 C537.33,409.56 538.45,408.57 539.18,407.55 C540.15,406.20 539.19,405.00 537.13,405.00 C535.23,405.00 530.67,400.57 529.69,397.78 C529.36,396.83 529.73,395.41 530.52,394.62 C531.30,393.85 531.56,393.19 531.24,391.60 C531.69,393.36 532.00,395.13 532.00,396.17 C532.00,397.43 532.65,398.89 533.62,400.21 C533.37,400.08 533.11,400.00 532.88,400.00 C532.33,400.00 532.16,400.45 532.50,401.00 C532.84,401.55 533.57,402.00 534.12,402.00 C534.51,402.00 534.71,401.77 534.67,401.45 C536.06,402.89 537.77,403.94 539.19,403.97 C540.12,403.99 542.42,403.09 544.31,401.98 C547.32,400.21 547.80,399.34 548.35,394.73 C548.70,391.85 548.99,385.80 548.99,381.29 C549.00,374.00 549.23,372.95 551.08,371.96 C551.08,371.95 551.09,371.95 551.10,371.95 C550.11,372.78 550.00,374.87 550.00,382.37 C550.00,388.86 550.43,393.03 551.17,393.77 C552.07,394.67 552.04,395.60 551.05,397.72 C548.72,402.74 548.15,405.75 549.30,406.90 ZM 206.50 466.81 C209.03,468.24 211.59,468.29 214.09,466.95 C216.83,465.48 215.53,464.00 211.50,464.00 C209.64,464.00 207.84,463.55 207.50,463.00 C207.12,462.38 208.86,462.00 212.05,462.00 C217.18,462.00 217.21,461.98 216.53,459.26 C215.50,455.14 214.12,454.00 210.21,454.00 C205.71,454.00 203.00,456.42 203.02,460.40 C203.03,463.97 203.71,465.23 206.50,466.81 ZM 137.70 467.37 C138.09,467.75 139.10,467.94 139.95,467.78 C141.85,467.42 142.56,460.59 141.09,456.74 C140.16,454.29 139.67,454.11 134.04,454.13 L 128.00 454.16 L 128.00 460.58 C128.00,466.76 128.09,467.00 130.50,467.00 C132.80,467.00 133.00,466.63 133.00,462.50 C133.00,458.67 133.30,458.00 135.00,458.00 C136.69,458.00 137.00,458.67 137.00,462.33 C137.00,464.72 137.32,466.98 137.70,467.37 ZM 1037.24 410.74 C1035.09,408.03 1033.85,402.16 1034.97,400.05 C1035.65,398.78 1035.73,397.33 1035.18,396.25 C1034.69,395.29 1034.42,391.35 1034.58,387.50 C1034.75,383.65 1034.37,379.05 1033.75,377.27 C1032.74,374.40 1032.87,373.76 1034.98,371.52 C1035.35,371.13 1035.68,370.79 1035.98,370.50 C1034.59,373.00 1034.70,384.75 1036.25,386.44 C1037.65,387.96 1038.20,387.68 1043.82,382.14 L 1040.00 386.12 L 1040.00 398.50 C1040.00,410.43 1039.34,413.38 1037.24,410.74 ZM 161.08 466.34 C162.26,467.17 164.97,467.71 167.33,467.59 L 171.50 467.38 L 171.80 462.73 C172.23,456.19 170.82,454.00 166.21,454.02 C164.17,454.02 161.88,454.42 161.12,454.90 C158.91,456.31 160.81,457.99 163.92,457.37 C165.52,457.05 167.05,457.28 167.44,457.90 C167.86,458.58 167.23,459.00 165.78,459.00 C162.93,459.00 159.00,461.61 159.00,463.50 C159.00,464.26 159.94,465.54 161.08,466.34 ZM 175.69 467.35 C177.21,468.87 178.53,467.11 179.00,462.93 C179.36,459.77 180.00,458.42 181.25,458.19 C182.67,457.92 183.00,458.58 183.02,461.68 C183.03,466.33 184.26,468.50 186.40,467.68 C188.42,466.90 188.68,456.81 186.71,455.18 C186.01,454.59 183.08,454.13 180.21,454.15 L 175.00 454.19 L 175.00 460.43 C175.00,463.86 175.31,466.98 175.69,467.35 ZM 501.42 401.08 C503.30,399.30 504.00,397.64 504.00,394.90 C504.00,388.72 502.35,387.89 490.64,388.22 L 480.50 388.50 L 487.84 388.20 C493.77,387.97 495.07,387.63 494.62,386.45 C494.19,385.33 494.99,385.00 498.20,385.00 C500.47,385.00 502.05,385.28 501.71,385.62 C501.37,385.97 502.25,387.77 503.67,389.64 C507.33,394.43 506.45,399.19 500.98,404.25 L 496.91 408.00 L 502.04 407.78 C504.86,407.66 506.66,407.39 506.03,407.18 C505.26,406.92 505.42,406.19 506.53,404.96 C507.44,403.96 508.93,403.37 509.84,403.66 C509.93,403.69 510.01,403.71 510.08,403.73 C509.81,404.08 509.51,404.43 509.16,404.82 C506.82,407.44 505.58,408.00 502.12,408.00 C499.81,408.00 496.16,408.90 494.00,410.00 C493.54,410.23 493.06,410.45 492.57,410.64 C492.58,410.43 492.33,410.19 491.83,409.88 C490.75,409.19 490.75,409.03 491.81,409.02 C492.53,409.01 492.84,408.55 492.50,408.00 C492.16,407.45 492.36,407.00 492.94,407.00 C493.52,407.00 494.00,406.55 494.00,406.00 C494.00,405.45 491.59,405.00 488.65,405.00 C484.42,405.00 482.13,404.43 481.02,402.36 C482.25,404.00 484.97,404.08 490.62,403.84 C497.67,403.55 499.21,403.16 501.42,401.08 ZM 144.25 442.90 C145.49,443.36 147.06,443.52 147.75,443.26 C149.48,442.60 149.32,440.34 147.50,439.64 C146.62,439.30 146.00,437.80 146.00,436.03 C146.00,434.00 146.50,433.00 147.50,433.00 C148.32,433.00 149.00,432.37 149.00,431.61 C149.00,430.84 148.32,429.95 147.50,429.64 C146.68,429.32 146.00,428.37 146.00,427.53 C146.00,426.69 145.21,426.00 144.24,426.00 C142.11,426.00 139.00,432.17 140.83,432.78 C141.49,433.00 142.00,435.11 142.00,437.62 C142.00,441.31 142.38,442.21 144.25,442.90 ZM 532.03 409.10 C531.63,408.84 531.02,408.61 530.29,408.45 C528.76,408.11 527.00,407.68 526.39,407.50 C524.72,407.00 524.02,400.85 524.01,386.31 C524.00,373.34 524.73,370.33 527.26,372.86 C527.45,373.05 527.64,373.48 527.82,374.07 C527.53,373.60 527.21,373.37 526.89,373.57 C525.66,374.33 525.77,384.04 527.11,391.69 C527.91,396.33 527.91,398.40 527.11,399.37 C525.51,401.30 527.52,406.41 530.51,408.01 C531.15,408.35 531.68,408.74 532.03,409.10 ZM 120.00 486.08 C120.00,490.66 120.17,491.00 122.50,491.00 C124.91,491.00 125.00,490.77 125.00,484.50 C125.00,478.79 124.77,478.00 123.11,478.00 C120.72,478.00 120.00,479.88 120.00,486.08 ZM 1041.98 373.69 C1042.22,373.68 1042.48,373.61 1042.76,373.49 C1047.12,371.71 1051.43,370.89 1053.58,371.43 C1056.59,372.19 1055.78,374.59 1052.21,375.48 C1050.96,375.80 1048.34,377.70 1045.96,379.96 C1047.58,378.17 1047.34,377.62 1046.14,375.64 C1045.05,373.85 1043.98,373.19 1042.77,373.57 C1042.49,373.66 1042.23,373.70 1041.98,373.69 ZM 504.34 382.03 C504.55,382.73 505.60,383.69 507.78,385.69 C511.85,389.41 512.00,389.76 512.00,395.59 C512.00,399.82 511.75,401.45 510.35,403.37 C510.31,403.33 510.25,403.29 510.20,403.25 C509.17,402.52 509.15,401.77 510.08,399.73 C511.59,396.42 510.58,392.49 507.42,389.33 C504.98,386.89 503.87,384.00 504.34,382.03 ZM 569.52 362.38 C568.62,361.48 568.03,359.79 568.20,358.63 C568.44,356.92 569.19,356.50 572.00,356.50 C574.81,356.50 575.56,356.92 575.80,358.63 C576.10,360.68 573.75,364.00 572.00,364.00 C571.53,364.00 570.41,363.27 569.52,362.38 ZM 968.50 402.97 C966.95,401.33 965.51,397.99 965.21,394.79 C964.83,390.90 965.04,390.00 966.33,390.00 C967.58,390.00 967.97,388.61 968.20,383.25 L 968.50 376.50 L 968.50 402.97 ZM 137.46 485.25 C136.75,487.08 135.06,487.90 133.25,487.27 C131.45,486.64 131.71,482.05 133.58,481.33 C135.63,480.54 138.25,483.19 137.46,485.25 ZM 553.17 407.71 C553.84,407.09 553.94,405.28 553.89,400.39 C553.85,396.11 554.29,392.31 554.91,391.69 C555.34,391.26 555.64,389.22 555.82,386.59 C555.81,387.58 555.79,388.62 555.77,389.73 L 555.50 407.50 L 553.17 407.71 ZM 772.58 402.54 C773.40,405.59 776.75,405.47 776.75,402.39 C776.75,401.03 776.53,400.13 776.27,400.40 C775.56,401.10 773.13,398.63 773.66,397.75 C773.91,397.34 773.64,397.00 773.06,397.00 C771.91,397.00 771.71,399.31 772.58,402.54 ZM 976.92 408.80 L 974.11 406.44 C972.52,405.10 970.81,404.00 970.33,404.00 C969.95,404.00 969.56,403.84 969.17,403.56 L 974.00 404.00 C980.05,404.55 980.85,405.70 976.92,408.80 ZM 113.39 489.57 C114.34,492.06 117.50,490.85 117.50,488.00 C117.50,486.44 116.85,485.40 115.75,485.19 C113.77,484.81 112.48,487.20 113.39,489.57 ZM 916.63 404.47 C917.52,406.79 921.47,406.02 921.60,403.50 C921.68,401.97 921.03,401.48 918.85,401.39 C915.89,401.28 915.57,401.72 916.63,404.47 ZM 120.70 475.37 C122.06,476.72 124.50,475.46 124.82,473.24 C125.08,471.42 124.66,471.00 122.57,471.00 C120.74,471.00 120.00,471.53 120.00,472.83 C120.00,473.84 120.32,474.98 120.70,475.37 ZM 1079.41 391.93 C1073.39,392.18 1072.74,392.66 1070.49,395.01 C1071.81,393.53 1071.92,392.72 1071.04,391.08 C1070.08,389.28 1070.21,389.00 1072.04,389.00 C1073.19,389.00 1074.82,389.67 1075.64,390.50 C1076.59,391.45 1077.94,391.92 1079.41,391.93 ZM 167.77 463.19 C167.55,463.84 166.95,464.48 166.44,464.60 C164.85,464.99 162.96,463.88 163.55,462.91 C164.39,461.56 168.23,461.80 167.77,463.19 ZM 212.00 458.00 C212.00,458.55 210.85,459.00 209.44,459.00 C207.99,459.00 207.15,458.57 207.50,458.00 C207.84,457.45 208.99,457.00 210.06,457.00 C211.13,457.00 212.00,457.45 212.00,458.00 ZM 1061.56 391.10 C1062.14,392.04 1062.53,391.86 1063.05,390.43 C1063.91,388.07 1063.35,387.25 1061.87,388.73 C1061.27,389.33 1061.13,390.40 1061.56,391.10 ZM 529.80 386.92 C528.81,383.89 528.24,380.81 528.53,379.90 C528.55,379.83 528.58,379.75 528.60,379.67 C528.74,381.85 529.22,384.68 529.80,386.92 ZM 397.82 131.90 C396.58,131.15 396.00,129.81 396.00,127.71 L 396.00 125.91 C396.02,128.74 396.44,130.24 397.82,131.90 ZM 551.94 371.52 C553.13,370.95 553.98,370.77 554.58,371.33 C553.91,371.17 552.87,371.22 551.99,371.50 C551.97,371.51 551.96,371.51 551.94,371.52 ZM 989.50 372.98 C989.74,371.92 990.11,371.51 990.64,371.31 C991.06,371.15 991.60,371.10 992.16,371.15 C991.97,371.16 991.78,371.17 991.59,371.20 C990.50,371.36 989.85,371.88 989.50,372.98 ZM 35.00 492.20 C33.08,491.15 30.45,488.77 29.18,486.90 C30.45,488.77 33.07,491.13 34.98,492.15 C36.01,492.70 37.32,493.19 38.55,493.53 C37.38,493.33 36.29,492.90 35.00,492.20 ZM 921.48 411.54 C922.00,411.82 922.91,412.00 923.94,412.00 C924.14,412.00 924.34,411.99 924.54,411.98 C923.32,412.19 922.12,412.06 921.48,411.54 ZM 533.24 411.28 C533.83,411.50 534.93,411.10 536.07,410.38 C536.05,410.40 536.03,410.41 536.02,410.42 C535.18,411.15 533.93,411.53 533.24,411.28 ZM 306.14 35.60 C305.13,35.20 304.39,34.62 303.72,33.78 C303.63,33.67 303.55,33.57 303.46,33.47 C303.72,33.63 303.86,33.82 304.02,34.02 C304.53,34.70 305.22,35.22 306.14,35.60 ZM 615.04 387.37 C614.88,387.62 614.71,387.82 614.53,387.98 C614.57,387.93 614.61,387.88 614.65,387.83 C614.80,387.67 614.93,387.52 615.04,387.37 ZM 505.56 380.25 C505.37,380.39 505.21,380.53 505.06,380.65 C505.21,380.50 505.37,380.37 505.56,380.25 ZM 916.09 368.64 C916.65,369.06 917.00,369.91 917.00,371.09 C917.00,369.92 916.65,369.07 916.09,368.64 ZM 968.73 410.00 C969.51,410.62 970.10,411.07 970.60,411.38 C970.10,411.08 969.51,410.61 968.73,410.00 ZM 27.37 483.10 C27.68,484.45 28.24,485.53 29.18,486.90 C28.24,485.53 27.68,484.46 27.37,483.10 ZM 1040.02 371.55 C1040.03,371.57 1040.03,371.58 1040.04,371.60 C1040.03,371.59 1040.03,371.58 1040.03,371.57 C1040.02,371.56 1040.02,371.55 1040.02,371.55 Z" fill="rgba(0,126,210,1)"/>
<path d="M 1007.73 338.00 C1006.33,336.90 1004.12,336.00 1002.81,336.00 C995.51,336.00 993.55,327.72 999.09,320.20 C1002.61,315.40 1005.63,314.78 1009.73,318.00 C1012.00,319.79 1013.78,320.00 1026.69,320.00 C1040.92,320.00 1041.15,319.96 1044.55,317.25 C1046.65,315.57 1048.00,313.62 1048.00,312.24 C1048.00,311.00 1048.90,309.21 1050.00,308.27 C1052.43,306.19 1052.90,297.28 1050.63,296.41 C1049.33,295.91 1040.71,301.04 1039.47,303.05 C1039.15,303.57 1033.12,304.00 1026.08,304.00 C1014.78,304.00 1012.97,303.76 1010.73,302.00 C1009.33,300.90 1007.65,300.00 1006.99,300.00 C1003.54,300.00 992.00,288.08 992.00,284.51 C992.00,283.58 991.10,281.67 990.00,280.27 C988.21,278.00 988.00,276.22 988.00,263.27 C988.00,250.33 988.21,248.55 990.00,246.27 C991.10,244.87 992.00,242.95 992.00,242.00 C992.00,241.05 992.90,239.13 994.00,237.73 C995.10,236.33 996.00,234.86 996.00,234.46 C996.00,232.09 1006.70,224.76 1011.47,223.85 C1013.69,223.43 1018.10,222.57 1021.27,221.94 C1025.11,221.18 1027.46,221.13 1028.27,221.79 C1028.95,222.33 1032.43,223.09 1036.00,223.48 C1040.34,223.95 1043.00,224.78 1044.00,225.97 C1044.82,226.95 1046.71,228.03 1048.18,228.38 C1050.31,228.87 1051.00,228.59 1051.51,226.98 C1052.53,223.76 1056.52,221.64 1059.74,222.59 C1061.26,223.04 1064.99,223.45 1068.03,223.51 C1071.07,223.57 1074.11,223.95 1074.78,224.37 C1075.71,224.94 1076.00,234.68 1075.99,264.81 C1075.99,302.73 1075.90,304.63 1074.00,307.50 C1072.91,309.15 1072.01,311.98 1072.01,313.78 C1072.00,316.08 1070.83,318.54 1068.06,322.04 C1065.90,324.78 1063.85,327.91 1063.50,329.01 C1063.15,330.10 1061.80,331.26 1060.51,331.59 C1059.21,331.91 1057.37,333.04 1056.42,334.09 C1055.47,335.14 1053.43,336.00 1051.88,336.00 C1050.09,336.00 1048.68,336.73 1048.00,338.00 C1046.99,339.89 1045.91,340.00 1028.60,340.00 C1011.78,340.00 1010.06,339.83 1007.73,338.00 ZM 622.56 303.69 C621.15,301.29 620.00,298.31 620.00,297.07 C620.00,295.83 619.10,293.67 618.00,292.27 C616.90,290.87 616.00,288.62 616.00,287.27 C616.00,285.92 615.10,283.67 614.00,282.27 C612.89,280.86 612.00,278.22 612.00,276.33 C612.00,274.26 611.42,272.72 610.53,272.37 C609.72,272.06 608.76,270.16 608.41,268.15 C608.05,266.14 606.91,263.10 605.88,261.38 C604.85,259.67 604.00,257.26 604.00,256.04 C604.00,254.82 603.10,252.67 602.00,251.27 C600.83,249.79 600.00,247.22 600.00,245.09 C600.00,242.68 599.32,240.86 598.00,239.73 C596.74,238.65 596.00,236.78 596.00,234.66 C596.00,232.74 595.14,230.32 594.00,229.00 C592.90,227.73 592.00,225.51 592.00,224.07 C592.00,222.63 591.10,220.67 590.00,219.73 C588.74,218.65 588.00,216.78 588.00,214.66 C588.00,212.74 587.14,210.32 586.00,209.00 C584.90,207.73 584.00,205.62 584.00,204.31 C584.00,202.99 583.00,200.57 581.78,198.92 C580.06,196.59 579.80,195.54 580.64,194.21 C581.52,192.81 583.60,192.45 592.18,192.22 C601.55,191.97 602.93,192.16 605.32,194.04 C606.84,195.23 608.00,197.14 608.00,198.44 C608.00,199.70 608.90,201.87 610.00,203.27 C611.10,204.67 612.00,207.02 612.00,208.50 C612.00,209.98 612.90,212.33 614.00,213.73 C615.10,215.13 616.00,217.72 616.00,219.48 C616.00,221.26 616.89,223.72 618.00,225.00 C619.21,226.39 620.00,228.74 620.00,230.93 C620.00,233.32 620.68,235.14 622.00,236.27 C623.45,237.51 624.00,239.22 624.00,242.46 C624.00,245.91 624.46,247.17 626.00,248.00 C627.53,248.82 628.00,250.09 628.00,253.38 C628.00,256.42 628.59,258.22 630.00,259.50 C631.10,260.50 632.00,262.52 632.00,264.00 C632.00,265.48 632.90,267.73 634.00,269.00 C635.23,270.42 636.00,272.74 636.00,275.04 C636.00,277.93 636.45,278.88 638.00,279.29 C639.17,279.60 640.00,279.32 640.00,278.63 C640.00,277.98 640.90,276.67 642.00,275.73 C643.38,274.55 644.00,272.78 644.00,270.00 C644.00,267.22 644.62,265.45 646.00,264.27 C647.18,263.26 648.00,261.31 648.01,259.53 C648.01,257.86 648.91,255.15 650.00,253.50 C651.09,251.85 651.99,249.45 651.99,248.16 C652.00,246.87 652.90,244.67 654.00,243.27 C655.18,241.77 656.00,239.22 656.00,237.02 C656.00,234.58 656.68,232.69 658.00,231.50 C659.35,230.27 660.00,228.42 660.00,225.75 C660.00,223.33 660.77,220.84 662.00,219.27 C663.10,217.87 664.00,215.22 664.00,213.36 C664.00,211.22 664.73,209.35 666.00,208.27 C667.40,207.07 668.00,205.32 668.00,202.46 C668.00,199.36 668.70,197.58 670.87,195.14 L 673.74 191.93 L 684.62 192.21 L 695.50 192.50 L 695.81 195.68 C696.04,198.07 695.60,199.14 694.06,199.97 C692.64,200.73 692.00,202.07 691.99,204.29 C691.99,206.05 691.09,208.85 690.00,210.50 C688.91,212.15 688.01,214.78 688.01,216.34 C688.00,217.91 687.10,220.33 686.00,221.73 C684.90,223.13 684.00,225.77 684.00,227.60 C684.00,229.91 683.39,231.26 682.00,232.00 C680.47,232.82 680.00,234.09 680.00,237.38 C680.00,240.42 679.41,242.22 678.00,243.50 C676.79,244.59 676.00,246.58 676.00,248.52 C676.00,250.29 675.10,252.87 674.00,254.27 C672.90,255.67 672.00,258.25 672.00,260.00 C672.00,261.75 671.10,264.33 670.00,265.73 C668.90,267.13 668.00,269.71 668.00,271.48 C668.00,273.42 667.21,275.41 666.00,276.50 C664.66,277.71 664.00,279.58 664.00,282.16 C664.00,284.78 663.36,286.57 662.00,287.73 C660.90,288.67 660.00,290.66 660.00,292.15 C660.00,293.64 659.23,295.63 658.28,296.58 C657.33,297.52 656.32,300.37 656.03,302.90 L 655.50 307.50 L 640.31 307.78 L 625.11 308.05 ZM 517.50 309.03 C515.85,308.59 512.32,308.18 509.66,308.12 C506.47,308.04 503.95,307.32 502.27,306.00 C500.87,304.90 498.52,304.00 497.05,304.00 C495.38,304.00 492.87,302.66 490.43,300.46 C488.27,298.52 485.39,296.38 484.03,295.71 C482.67,295.05 481.03,293.44 480.39,292.16 C479.75,290.87 477.67,288.17 475.77,286.16 C471.26,281.39 468.00,275.85 468.00,272.96 C468.00,271.69 467.21,269.79 466.25,268.73 C464.79,267.11 464.44,264.38 464.16,252.13 C463.85,238.31 463.95,237.36 465.91,235.58 C467.31,234.31 468.00,232.47 468.00,229.99 C468.00,227.58 468.78,225.41 470.25,223.74 C474.30,219.15 476.00,216.62 476.00,215.17 C476.00,213.37 489.93,200.00 491.80,200.00 C492.56,200.00 494.33,199.10 495.73,198.00 C497.13,196.90 499.31,196.00 500.59,196.00 C501.86,196.00 503.34,195.21 503.88,194.25 C504.75,192.69 507.04,192.46 524.69,192.18 C543.57,191.87 544.64,191.96 546.92,193.93 C548.23,195.07 550.60,196.00 552.18,196.00 C553.85,196.00 555.31,196.65 555.65,197.54 C555.98,198.38 557.65,199.75 559.37,200.57 C567.87,204.65 568.00,204.78 568.00,209.87 C568.00,214.07 567.62,214.91 564.75,217.05 C558.88,221.44 554.93,224.00 554.03,224.00 C553.54,224.00 550.43,222.20 547.12,220.00 C543.81,217.80 540.38,216.00 539.51,216.00 C538.64,216.00 536.16,215.10 534.00,214.00 C528.62,211.25 518.65,211.25 514.50,214.00 C512.85,215.09 510.37,215.99 509.00,215.99 C503.59,216.01 492.00,230.21 492.00,236.83 C492.00,238.33 491.22,240.67 490.26,242.03 C487.98,245.25 488.06,255.82 490.38,259.14 C491.27,260.41 492.00,263.31 492.00,265.59 C492.00,269.34 492.64,270.40 498.80,276.86 C502.90,281.16 506.42,284.00 507.65,284.00 C508.77,284.00 510.50,284.90 511.50,286.00 C513.12,287.79 514.58,288.00 525.53,288.00 C535.38,288.00 538.01,287.70 539.05,286.44 C539.76,285.59 541.73,284.22 543.42,283.42 C548.84,280.83 551.32,279.19 552.22,277.57 C553.43,275.40 555.72,275.60 557.00,278.00 C557.59,279.10 558.99,280.00 560.11,280.00 C561.24,280.00 563.47,281.32 565.08,282.92 C567.32,285.17 568.00,286.76 568.00,289.80 C568.00,293.11 567.41,294.25 564.34,296.87 C562.33,298.59 560.15,300.00 559.49,300.00 C558.84,300.00 557.50,300.90 556.50,302.00 C555.50,303.10 553.70,304.00 552.50,304.00 C551.30,304.00 549.56,304.83 548.64,305.85 C547.30,307.33 544.83,307.83 536.23,308.37 C530.33,308.75 524.38,309.23 523.00,309.44 C521.62,309.65 519.15,309.47 517.50,309.03 ZM 1096.67 307.33 C1096.30,306.97 1096.00,280.86 1096.00,249.31 L 1096.00 191.95 L 1098.52 190.99 C1101.38,189.90 1112.63,190.53 1116.46,191.99 C1117.86,192.52 1119.04,193.52 1119.08,194.23 C1119.13,194.93 1119.32,202.70 1119.51,211.50 C1119.70,220.30 1119.88,227.85 1119.92,228.27 C1120.04,229.49 1125.30,227.91 1127.50,225.99 C1128.60,225.02 1130.85,223.98 1132.50,223.67 C1134.15,223.36 1138.09,222.58 1141.27,221.95 C1146.12,220.98 1147.67,221.05 1151.04,222.40 C1153.24,223.28 1156.49,224.00 1158.27,224.01 C1160.74,224.01 1162.74,225.16 1166.75,228.85 C1171.17,232.93 1172.00,234.24 1172.00,237.21 C1172.00,239.18 1172.85,241.82 1173.94,243.19 C1175.77,245.52 1175.86,247.35 1175.69,276.58 L 1175.50 307.50 L 1165.15 307.79 C1158.37,307.97 1154.31,307.67 1153.40,306.91 C1152.26,305.97 1152.00,300.50 1152.00,277.80 L 1152.00 249.85 L 1149.20 247.04 C1146.09,243.93 1138.97,240.00 1136.45,240.00 C1135.55,240.00 1133.67,240.90 1132.27,242.00 C1130.87,243.10 1128.86,244.00 1127.79,244.00 C1126.72,244.00 1124.60,245.25 1123.07,246.77 C1119.38,250.47 1118.56,258.11 1118.94,285.37 C1119.17,302.14 1118.96,306.41 1117.86,307.11 C1116.27,308.12 1097.65,308.32 1096.67,307.33 ZM 821.50 308.21 C819.85,308.01 818.09,307.45 817.60,306.97 C817.10,306.49 816.47,293.38 816.21,277.83 L 815.73 249.58 L 812.94 246.79 C811.41,245.26 809.56,243.99 808.83,243.98 C808.10,243.97 806.38,243.08 805.00,242.00 C801.80,239.50 799.45,239.50 796.27,242.00 C794.87,243.10 792.86,244.00 791.79,244.00 C790.72,244.00 788.60,245.25 787.07,246.77 C784.51,249.33 784.25,250.33 783.64,260.02 C783.28,265.78 782.93,278.29 782.86,287.81 C782.76,301.41 782.42,305.43 781.29,306.56 C779.39,308.47 761.52,308.62 760.32,306.75 C759.46,305.41 759.73,226.24 760.60,224.84 C760.88,224.38 765.99,224.00 771.95,224.00 C783.09,224.00 784.84,224.66 783.42,228.34 C783.14,229.08 783.61,230.27 784.48,230.98 C785.82,232.09 786.60,231.68 789.87,228.14 C792.41,225.39 794.54,224.00 796.22,224.00 C797.61,224.00 800.66,223.32 803.00,222.50 C805.34,221.68 808.71,221.00 810.50,221.00 C812.29,221.00 815.37,221.68 817.35,222.50 C819.32,223.32 822.15,224.00 823.63,224.00 C827.12,224.00 836.00,232.84 836.00,236.32 C836.00,237.62 836.90,239.50 838.00,240.50 C839.92,242.24 840.00,243.58 840.00,274.69 C840.00,299.71 839.72,307.15 838.75,307.45 C836.75,308.08 824.78,308.60 821.50,308.21 ZM 887.50 311.27 C886.40,310.99 884.61,310.14 883.53,309.38 C882.44,308.62 879.52,307.99 877.03,307.99 C874.54,307.98 871.38,307.33 870.00,306.55 C868.62,305.76 866.15,304.46 864.50,303.64 C862.85,302.83 860.15,301.04 858.50,299.66 L 855.50 297.15 L 857.75 295.04 C858.99,293.87 860.00,292.47 860.00,291.91 C860.00,291.35 861.24,289.34 862.75,287.45 C865.89,283.51 869.68,282.89 872.38,285.86 C873.46,287.06 876.02,287.93 879.51,288.29 C882.50,288.60 885.96,289.56 887.20,290.43 C890.54,292.77 896.42,292.39 900.93,289.54 C905.27,286.81 908.08,283.36 907.40,281.64 C906.55,279.48 900.02,276.00 896.76,275.98 C894.97,275.97 892.38,275.08 891.00,274.00 C889.28,272.65 886.92,272.04 883.40,272.02 C879.60,272.01 877.85,271.49 876.50,270.00 C875.50,268.90 873.69,268.00 872.47,268.00 C871.16,268.00 868.04,265.90 864.87,262.88 L 859.50 257.75 L 859.68 247.27 C859.85,237.60 860.08,236.49 862.65,232.78 C864.18,230.58 866.12,228.53 866.96,228.24 C867.81,227.94 869.40,226.93 870.50,225.98 C871.70,224.95 875.07,224.01 878.90,223.63 C882.42,223.28 885.79,222.59 886.40,222.09 C887.77,220.96 899.82,220.90 900.51,222.02 C900.79,222.47 904.05,223.15 907.76,223.54 C911.93,223.96 915.26,224.90 916.50,225.98 C917.60,226.95 919.74,228.03 921.25,228.39 C923.66,228.96 924.00,229.51 924.00,232.87 C924.00,235.06 923.25,237.58 922.25,238.76 C921.29,239.90 920.04,241.60 919.47,242.54 C918.02,244.95 910.84,244.68 906.60,242.06 C903.88,240.38 901.61,240.00 894.32,240.00 C885.76,240.00 885.25,240.13 882.61,242.89 C880.63,244.95 879.94,246.58 880.17,248.62 C880.45,251.06 881.04,251.56 884.25,252.08 C886.31,252.41 888.82,253.43 889.83,254.34 C891.17,255.56 893.55,256.00 898.84,256.00 C904.78,256.00 906.31,256.34 907.73,258.00 C908.68,259.11 910.68,260.00 912.21,260.00 C913.90,260.00 915.47,260.78 916.23,262.00 C916.96,263.17 918.56,264.00 920.10,264.00 C922.23,264.00 923.20,264.94 925.36,269.09 C927.68,273.57 928.00,275.35 927.99,283.84 L 927.99 293.50 L 923.15 298.75 C920.41,301.72 917.44,304.00 916.31,304.00 C915.21,304.00 913.50,304.90 912.50,306.00 C911.25,307.38 909.42,308.00 906.57,308.00 C904.30,308.00 901.56,308.61 900.47,309.36 C898.23,310.91 890.50,312.05 887.50,311.27 ZM 1223.00 309.03 C1222.18,308.48 1219.83,308.02 1217.80,308.02 C1214.69,308.00 1213.28,307.18 1209.05,302.95 C1206.27,300.18 1204.00,297.02 1204.00,295.95 C1204.00,294.87 1203.10,292.31 1202.00,290.26 C1200.17,286.85 1200.00,284.62 1200.00,264.39 C1200.00,247.71 1199.69,241.98 1198.73,241.19 C1198.03,240.61 1195.44,239.99 1192.98,239.82 L 1188.50 239.50 L 1188.50 224.50 L 1199.50 223.50 L 1200.50 204.50 L 1223.50 204.50 L 1224.50 223.50 L 1243.50 224.50 L 1243.80 231.84 C1243.96,235.88 1243.64,239.73 1243.08,240.40 C1242.37,241.26 1240.14,241.41 1235.34,240.91 C1228.44,240.20 1226.06,240.54 1224.77,242.43 C1224.36,243.02 1224.04,252.27 1224.04,263.00 L 1224.06 282.50 L 1226.81 285.20 C1229.18,287.53 1230.53,287.94 1236.53,288.20 L 1243.50 288.50 L 1243.50 307.50 L 1236.00 308.11 C1231.88,308.45 1227.60,309.01 1226.50,309.37 C1225.40,309.73 1223.82,309.58 1223.00,309.03 ZM 711.40 305.75 C711.00,304.51 710.59,301.21 710.50,298.42 C710.40,295.62 710.07,292.92 709.76,292.42 C709.45,291.91 709.39,288.58 709.63,285.00 C709.86,281.42 710.04,277.94 710.03,277.25 C710.01,276.56 710.03,275.21 710.06,274.25 C710.20,270.64 710.00,219.44 709.84,218.00 C709.49,214.70 711.15,196.73 712.02,194.44 C712.91,192.10 713.33,192.00 722.01,192.00 C728.35,192.00 731.19,192.37 731.50,193.25 C732.36,195.68 732.61,304.95 731.76,306.46 C731.08,307.68 728.92,308.00 721.52,308.00 C712.67,308.00 712.09,307.87 711.40,305.75 ZM 950.50 308.21 C949.40,307.99 948.05,307.38 947.50,306.85 C946.91,306.29 946.44,297.49 946.35,285.20 C946.26,273.81 945.95,255.61 945.64,244.74 L 945.09 224.99 L 948.44 223.59 C950.56,222.70 954.44,222.30 959.02,222.49 C965.47,222.76 966.57,223.11 969.15,225.69 C972.02,228.56 972.04,228.65 971.08,235.46 C970.54,239.24 970.44,243.04 970.85,243.91 C971.26,244.79 971.48,253.15 971.33,262.50 C971.18,271.85 970.98,285.04 970.88,291.82 C970.65,307.62 970.30,308.15 959.95,308.42 C955.85,308.53 951.60,308.43 950.50,308.21 ZM 1032.58 286.58 C1033.69,285.80 1036.35,284.84 1038.50,284.43 C1041.26,283.92 1043.79,282.31 1047.20,278.90 L 1052.00 274.10 L 1052.00 263.77 C1052.00,255.20 1051.70,253.18 1050.25,251.89 C1049.29,251.03 1047.60,249.23 1046.50,247.90 C1045.40,246.56 1042.68,244.23 1040.45,242.73 C1035.27,239.25 1027.21,238.90 1023.27,242.00 C1021.87,243.10 1019.91,244.00 1018.90,244.00 C1017.89,244.00 1016.53,245.00 1015.88,246.23 C1015.22,247.46 1014.08,249.06 1013.34,249.80 C1012.60,250.54 1012.00,252.15 1012.00,253.37 C1012.00,254.60 1011.50,256.10 1010.89,256.71 C1010.23,257.37 1010.01,259.55 1010.36,262.16 C1012.01,274.56 1012.03,274.61 1017.08,279.38 C1019.77,281.92 1022.60,284.00 1023.38,284.00 C1024.15,284.00 1025.84,284.89 1027.14,285.97 C1030.00,288.35 1030.05,288.36 1032.58,286.58 ZM 950.83 209.25 C948.15,206.35 944.95,200.45 945.07,198.60 C945.10,197.99 946.60,195.48 948.40,193.00 L 951.66 188.50 L 958.86 188.21 C965.69,187.93 966.22,188.06 969.03,190.88 C971.71,193.55 972.00,194.48 972.00,200.29 C972.00,206.62 971.93,206.77 968.20,209.36 C965.21,211.43 963.21,212.00 958.88,212.00 C954.16,212.00 953.01,211.61 950.83,209.25 ZM 1077.67 390.16 C1077.44,391.04 1077.80,391.60 1078.49,391.86 C1077.39,391.70 1076.39,391.25 1075.64,390.50 C1074.88,389.74 1073.43,389.10 1072.31,389.01 C1072.52,388.97 1072.75,388.93 1073.00,388.88 C1074.93,388.54 1075.82,388.20 1075.00,388.13 C1074.18,388.05 1072.28,387.35 1070.80,386.58 C1070.32,386.33 1069.93,386.13 1069.60,385.99 C1069.93,386.12 1070.33,386.31 1070.81,386.55 C1072.93,387.61 1079.71,388.51 1083.74,388.51 C1083.12,388.53 1082.47,388.53 1081.82,388.50 C1079.01,388.37 1078.04,388.76 1077.67,390.16 ZM 1070.45 389.61 C1070.47,389.92 1070.67,390.39 1071.04,391.08 C1071.93,392.75 1071.81,393.55 1070.42,395.08 C1068.21,397.53 1067.24,397.51 1066.51,394.87 C1067.43,398.13 1069.38,396.94 1069.45,392.93 C1069.48,391.01 1069.61,390.13 1070.45,389.61 ZM 1066.42 394.55 C1066.09,393.21 1066.32,390.55 1066.95,388.65 C1066.33,390.55 1066.10,393.21 1066.44,394.60 C1066.43,394.58 1066.43,394.57 1066.42,394.55 ZM 1086.72 388.10 C1086.98,387.91 1086.79,388.12 1086.28,388.60 C1086.51,388.37 1086.66,388.20 1086.72,388.10 Z" fill="rgba(3,42,84,1)"/>
<path d="M 481.00 411.08 C481.00,410.58 481.56,409.94 482.25,409.66 C482.94,409.38 482.56,409.12 481.40,409.08 C477.10,408.92 476.23,406.34 475.47,391.43 C474.68,375.76 475.29,370.17 477.59,372.08 C478.37,372.72 479.37,374.65 479.82,376.37 C480.50,379.01 481.23,379.59 484.56,380.17 C490.28,381.17 498.72,380.00 501.49,377.83 C503.09,376.57 504.11,374.46 504.56,371.47 C505.25,366.85 505.60,366.46 507.81,367.86 C509.87,369.17 508.27,378.79 505.76,380.13 C503.18,381.51 503.96,385.87 507.42,389.33 C510.58,392.49 511.59,396.42 510.08,399.73 C509.15,401.77 509.17,402.52 510.20,403.25 C511.17,403.95 511.08,404.05 509.84,403.66 C508.93,403.37 507.44,403.96 506.53,404.96 C505.42,406.19 505.26,406.92 506.03,407.18 C506.66,407.39 504.86,407.66 502.04,407.78 L 496.91 408.00 L 500.98 404.25 C506.45,399.19 507.33,394.43 503.67,389.64 C502.25,387.77 501.37,385.97 501.71,385.62 C502.05,385.28 500.47,385.00 498.20,385.00 C494.99,385.00 494.19,385.33 494.62,386.45 C495.07,387.63 493.77,387.97 487.84,388.20 L 480.50 388.50 L 480.20 394.87 C479.80,403.26 481.26,405.00 488.65,405.00 C491.59,405.00 494.00,405.45 494.00,406.00 C494.00,406.55 493.52,407.00 492.94,407.00 C492.36,407.00 492.16,407.45 492.50,408.00 C492.84,408.55 492.53,409.01 491.81,409.02 C490.75,409.03 490.75,409.19 491.83,409.88 C492.90,410.55 492.83,410.85 491.50,411.36 C488.97,412.33 481.00,412.12 481.00,411.08 ZM 968.73 410.00 C967.33,408.90 965.54,408.00 964.75,408.00 C963.19,408.00 959.99,404.91 960.02,403.42 C960.02,402.91 960.49,403.17 961.06,404.00 C961.79,405.07 961.93,403.62 961.55,399.00 C961.26,395.42 960.74,389.00 960.40,384.73 C959.90,378.44 959.41,376.76 957.85,375.92 C956.52,375.21 956.10,374.26 956.52,372.94 C956.90,371.75 956.67,371.00 955.93,371.00 C955.27,371.00 955.88,370.09 957.29,368.99 C958.70,367.88 960.14,365.65 960.49,364.03 C961.51,359.40 967.00,358.63 967.00,363.12 C967.00,366.64 968.91,369.00 971.79,369.03 C974.73,369.07 978.88,373.53 977.36,375.02 C976.89,375.49 974.70,376.01 972.50,376.18 L 968.50 376.50 L 968.20 383.25 C967.97,388.61 967.58,390.00 966.33,390.00 C965.04,390.00 964.83,390.90 965.21,394.79 C965.64,399.26 968.27,404.00 970.33,404.00 C970.81,404.00 972.52,405.10 974.11,406.44 L 977.01 408.88 L 974.78 410.44 C971.96,412.42 971.79,412.41 968.73,410.00 ZM 549.30 406.90 C548.15,405.75 548.72,402.74 551.05,397.72 C552.04,395.60 552.07,394.67 551.17,393.77 C550.43,393.03 550.00,388.86 550.00,382.37 C550.00,373.03 550.17,372.08 551.99,371.50 C553.09,371.16 554.44,371.15 554.99,371.49 C556.37,372.35 556.29,390.31 554.91,391.69 C554.29,392.31 553.85,396.11 553.89,400.39 C553.96,407.06 553.75,408.00 552.18,408.00 C551.20,408.00 549.90,407.50 549.30,406.90 ZM 533.24 411.28 C532.55,411.03 532.20,410.49 532.46,410.07 C532.72,409.65 531.84,408.72 530.51,408.01 C527.52,406.41 525.51,401.30 527.11,399.37 C527.91,398.40 527.91,396.33 527.11,391.69 C525.77,384.04 525.66,374.33 526.89,373.57 C528.03,372.86 529.26,377.61 528.53,379.90 C528.23,380.85 528.88,384.23 529.97,387.41 C531.70,392.43 531.77,393.37 530.52,394.62 C529.73,395.41 529.36,396.83 529.69,397.78 C530.67,400.57 535.23,405.00 537.13,405.00 C539.19,405.00 540.15,406.20 539.18,407.55 C537.65,409.68 534.42,411.71 533.24,411.28 ZM 1036.25 386.44 C1034.62,384.67 1034.58,371.82 1036.20,370.20 C1038.00,368.40 1038.95,368.73 1040.03,371.57 C1040.72,373.39 1041.51,373.97 1042.77,373.57 C1043.98,373.19 1045.05,373.85 1046.14,375.64 C1047.69,378.20 1047.64,378.36 1044.07,381.88 C1038.22,387.67 1037.67,387.99 1036.25,386.44 ZM 937.50 403.01 C937.83,402.46 938.20,396.31 938.30,389.34 C938.44,380.23 938.85,376.55 939.75,376.25 C940.44,376.02 941.00,375.17 941.00,374.36 C941.00,373.55 941.41,373.14 941.91,373.45 C942.42,373.76 943.06,373.45 943.34,372.76 C943.61,372.07 943.85,376.67 943.85,383.00 C943.86,390.29 943.54,393.77 943.00,392.50 C942.23,390.71 942.13,390.69 942.07,392.31 C942.03,393.41 941.55,393.84 940.85,393.41 C940.01,392.89 939.87,393.82 940.35,396.77 C941.10,401.48 940.40,404.00 938.33,404.00 C937.54,404.00 937.16,403.55 937.50,403.01 ZM 872.67 387.33 C871.70,386.37 871.85,379.00 872.83,379.00 C874.09,379.00 878.94,384.73 878.26,385.41 C877.93,385.73 878.98,385.99 880.58,385.98 C882.56,385.97 883.07,385.70 882.17,385.13 C879.63,383.52 892.62,382.15 896.46,383.62 C897.95,384.19 897.94,384.41 896.39,386.12 C894.93,387.74 893.19,388.00 884.01,388.00 C878.14,388.00 873.03,387.70 872.67,387.33 ZM 616.02 405.08 C616.01,404.30 615.70,403.97 615.33,404.34 C614.96,404.70 613.84,404.26 612.83,403.35 C611.55,402.19 611.00,400.27 611.00,396.97 C611.00,390.35 612.06,385.48 613.13,387.17 C613.76,388.17 613.97,388.19 613.98,387.25 C613.99,386.56 614.52,386.00 615.15,386.00 C615.85,386.00 615.65,386.73 614.65,387.83 C612.86,389.81 612.45,394.03 613.91,395.55 C615.83,397.57 617.77,403.75 616.91,405.11 C616.17,406.29 616.03,406.28 616.02,405.08 ZM 915.93 380.25 C915.87,377.29 915.68,376.92 915.03,378.50 C914.41,380.00 914.21,379.44 914.22,376.26 C914.23,373.93 914.61,372.26 915.06,372.54 C915.51,372.81 915.81,372.13 915.73,371.01 C915.41,366.77 913.48,369.91 912.92,375.58 L 912.34 381.50 L 912.17 375.87 C912.05,372.00 912.45,369.87 913.46,369.04 C915.29,367.52 917.00,368.51 917.00,371.09 C917.00,372.18 917.72,374.17 918.60,375.51 C919.97,377.61 920.01,378.36 918.85,380.97 C917.05,385.04 916.01,384.79 915.93,380.25 ZM 591.49 407.97 C591.11,406.77 591.28,403.93 591.87,401.65 C592.45,399.37 593.12,396.60 593.35,395.50 C593.58,394.40 593.90,396.20 594.07,399.50 L 594.37 405.50 L 595.63 389.50 L 595.82 398.10 C595.97,405.43 595.72,406.94 594.09,408.42 C592.27,410.07 592.15,410.04 591.49,407.97 ZM 995.10 379.50 C994.89,376.87 994.75,376.75 994.00,378.50 C993.19,380.39 993.14,380.37 993.07,378.19 C993.03,376.92 992.55,376.16 992.00,376.50 C991.45,376.84 990.99,376.53 990.98,375.81 C990.97,374.85 990.70,374.90 989.95,376.00 C989.16,377.15 988.99,376.80 989.21,374.50 C989.42,372.34 990.08,371.42 991.59,371.20 C994.69,370.76 996.18,373.26 995.74,378.18 C995.45,381.40 995.29,381.74 995.10,379.50 ZM 613.18 379.25 C613.42,377.24 614.13,376.41 615.86,376.17 C617.36,375.95 617.98,376.23 617.55,376.92 C616.64,378.39 618.27,378.29 620.04,376.75 C620.84,376.06 620.17,376.96 618.56,378.75 C614.90,382.81 612.75,383.01 613.18,379.25 ZM 772.58 402.54 C771.71,399.31 771.91,397.00 773.06,397.00 C773.64,397.00 773.91,397.34 773.66,397.75 C773.13,398.63 775.56,401.10 776.27,400.40 C776.53,400.13 776.75,401.03 776.75,402.39 C776.75,405.47 773.40,405.59 772.58,402.54 ZM 916.63 404.47 C915.57,401.72 915.89,401.28 918.85,401.39 C921.03,401.48 921.68,401.97 921.60,403.50 C921.47,406.02 917.52,406.79 916.63,404.47 ZM 967.69 370.36 C968.53,371.20 969.22,371.15 970.83,370.12 C971.85,369.48 971.67,369.15 970.09,368.73 C967.98,368.18 966.51,369.18 967.69,370.36 ZM 1061.56 391.10 C1061.13,390.40 1061.27,389.33 1061.87,388.73 C1063.35,387.25 1063.91,388.07 1063.05,390.43 C1062.53,391.86 1062.14,392.04 1061.56,391.10 ZM 532.50 401.00 C532.16,400.45 532.33,400.00 532.88,400.00 C533.43,400.00 534.16,400.45 534.50,401.00 C534.84,401.55 534.67,402.00 534.12,402.00 C533.57,402.00 532.84,401.55 532.50,401.00 Z" fill="rgba(21,143,222,1)"/>
<path d="M 27.20 474.00 C27.18,471.68 27.01,469.82 26.74,469.38 C26.36,468.77 26.94,467.46 28.02,466.48 C29.62,465.03 30.00,463.39 30.00,457.88 C30.00,444.69 37.02,433.27 48.65,427.54 C53.44,425.18 55.86,424.64 62.00,424.58 C66.12,424.54 70.85,424.85 72.50,425.27 C74.33,425.74 75.60,425.45 82.41,419.89 C74.03,427.15 64.14,435.75 52.44,445.95 L 27.39 467.79 L 27.20 474.00 ZM 71.00 428.68 C71.00,428.15 67.25,427.93 62.18,428.18 C54.90,428.52 52.57,429.06 48.82,431.26 C43.31,434.49 38.32,439.99 35.95,445.45 C34.00,449.96 32.48,459.35 33.45,460.92 C34.11,461.98 71.00,430.31 71.00,428.68 ZM 76.64 484.16 C81.57,481.62 87.18,475.72 89.98,470.12 C92.13,465.83 93.98,455.00 92.56,455.00 C92.21,455.00 89.06,457.55 84.77,461.20 C89.38,457.03 93.00,453.65 93.93,452.61 C95.34,451.02 97.69,448.98 99.15,448.08 C99.93,447.60 101.53,446.36 103.42,444.79 L 96.18 451.19 L 96.18 458.02 C96.18,467.40 92.58,475.36 85.34,481.97 C77.63,489.02 70.84,491.37 60.25,490.66 C55.71,490.35 52.00,490.45 52.00,490.89 C52.00,491.54 49.37,492.56 46.50,493.26 C49.64,492.14 52.95,489.87 56.66,486.37 C58.00,485.11 60.36,482.96 63.24,480.37 L 56.71 486.50 L 60.11 487.02 C64.88,487.76 72.09,486.51 76.64,484.16 ZM 131.71 419.94 C130.05,421.35 127.62,423.48 125.05,425.82 C118.48,431.79 117.00,433.67 117.00,436.07 C117.00,438.82 117.24,439.00 121.00,439.00 C124.55,439.00 125.00,438.73 125.00,436.61 C125.00,430.77 132.95,426.95 136.90,430.90 C138.05,432.05 139.00,434.12 139.00,435.50 C139.00,437.80 138.64,438.00 134.44,438.00 C131.51,438.00 130.11,438.37 130.53,439.05 C130.89,439.63 132.56,439.97 134.24,439.80 C138.20,439.41 138.99,441.59 135.47,443.20 C133.16,444.25 132.22,444.12 128.89,442.30 C125.87,440.64 125.00,440.48 125.00,441.58 C125.00,442.66 123.45,443.00 118.57,443.00 C112.34,443.00 112.12,442.92 111.82,440.32 C111.60,438.49 111.45,437.98 108.80,440.12 C118.56,431.32 127.64,423.34 131.71,419.94 ZM 113.25 467.34 C112.38,466.99 112.00,464.12 112.00,457.96 L 112.00 449.09 L 115.34 448.46 C120.47,447.50 124.44,448.25 124.81,450.25 C125.09,451.68 124.41,452.00 121.07,452.00 C117.67,452.00 117.00,452.33 117.00,454.00 C117.00,455.67 117.67,456.00 121.00,456.00 C124.33,456.00 125.00,456.33 125.00,458.00 C125.00,459.67 124.33,460.00 120.93,460.00 C117.59,460.00 116.91,460.32 117.19,461.75 C117.43,463.03 118.66,463.58 121.76,463.81 C125.19,464.06 126.00,464.49 126.00,466.06 C126.00,467.76 125.30,467.99 120.25,467.92 C117.09,467.88 113.94,467.62 113.25,467.34 ZM 153.70 467.37 C153.32,466.98 153.00,464.72 153.00,462.33 C153.00,458.67 152.69,458.00 151.00,458.00 C149.30,458.00 149.00,458.67 149.00,462.50 C149.00,466.63 148.80,467.00 146.50,467.00 L 144.00 467.00 L 144.00 447.00 L 146.50 447.00 C148.73,447.00 149.00,447.41 149.00,450.80 C149.00,454.54 149.06,454.59 152.43,454.20 C155.66,453.82 155.93,454.02 157.02,457.67 C158.49,462.57 157.98,467.39 155.95,467.78 C155.10,467.94 154.09,467.75 153.70,467.37 ZM 132.09 490.84 C126.73,488.86 125.48,483.43 129.45,479.45 C135.55,473.36 145.08,480.38 141.02,487.96 C139.68,490.46 135.08,491.94 132.09,490.84 ZM 206.50 466.81 C203.71,465.23 203.03,463.97 203.02,460.40 C203.00,456.42 205.71,454.00 210.21,454.00 C214.12,454.00 215.50,455.14 216.53,459.26 C217.21,461.98 217.18,462.00 212.05,462.00 C208.86,462.00 207.12,462.38 207.50,463.00 C207.84,463.55 209.64,464.00 211.50,464.00 C215.53,464.00 216.83,465.48 214.09,466.95 C211.59,468.29 209.03,468.24 206.50,466.81 ZM 137.70 467.37 C137.32,466.98 137.00,464.72 137.00,462.33 C137.00,458.67 136.69,458.00 135.00,458.00 C133.30,458.00 133.00,458.67 133.00,462.50 C133.00,466.63 132.80,467.00 130.50,467.00 C128.09,467.00 128.00,466.76 128.00,460.58 L 128.00 454.16 L 134.04 454.13 C139.67,454.11 140.16,454.29 141.09,456.74 C142.56,460.59 141.85,467.42 139.95,467.78 C139.10,467.94 138.09,467.75 137.70,467.37 ZM 161.08 466.34 C159.94,465.54 159.00,464.26 159.00,463.50 C159.00,461.61 162.93,459.00 165.78,459.00 C167.23,459.00 167.86,458.58 167.44,457.90 C167.05,457.28 165.52,457.05 163.92,457.37 C160.81,457.99 158.91,456.31 161.12,454.90 C161.88,454.42 164.17,454.02 166.21,454.02 C170.82,454.00 172.23,456.19 171.80,462.73 L 171.50 467.38 L 167.33 467.59 C164.97,467.71 162.26,467.17 161.08,466.34 ZM 175.69 467.35 C175.31,466.98 175.00,463.86 175.00,460.43 L 175.00 454.19 L 180.21 454.15 C183.08,454.13 186.01,454.59 186.71,455.18 C188.68,456.81 188.42,466.90 186.40,467.68 C184.26,468.50 183.03,466.33 183.02,461.68 C183.00,458.58 182.67,457.92 181.25,458.19 C180.00,458.42 179.36,459.77 179.00,462.93 C178.53,467.11 177.21,468.87 175.69,467.35 ZM 211.56 449.35 C208.50,451.87 206.59,453.19 205.14,453.93 C202.86,455.09 201.00,456.48 201.00,457.02 C201.00,457.56 199.70,458.00 198.11,458.00 C194.87,458.00 193.29,460.44 195.11,462.63 C195.73,463.38 197.29,464.00 198.56,464.00 C201.37,464.00 202.78,465.89 200.88,467.10 C196.59,469.82 190.00,465.85 190.00,460.55 C190.00,458.73 190.68,456.68 191.52,455.98 C192.82,454.91 191.89,454.04 185.27,450.08 C181.43,447.79 176.77,444.89 174.28,443.23 C189.97,453.09 194.09,455.00 197.39,454.99 C202.48,454.99 205.74,453.92 211.56,449.35 ZM 144.25 442.90 C142.38,442.21 142.00,441.31 142.00,437.62 C142.00,435.11 141.49,433.00 140.83,432.78 C139.00,432.17 142.11,426.00 144.24,426.00 C145.21,426.00 146.00,426.69 146.00,427.53 C146.00,428.37 146.68,429.32 147.50,429.64 C148.32,429.95 149.00,430.84 149.00,431.61 C149.00,432.37 148.32,433.00 147.50,433.00 C146.50,433.00 146.00,434.00 146.00,436.03 C146.00,437.80 146.62,439.30 147.50,439.64 C149.32,440.34 149.48,442.60 147.75,443.26 C147.06,443.52 145.49,443.36 144.25,442.90 ZM 271.63 347.57 C290.90,328.24 300.66,317.22 299.40,316.10 C298.90,315.66 294.32,312.47 289.21,309.02 C284.11,305.56 279.49,301.92 278.96,300.93 C278.37,299.82 278.07,298.28 278.04,296.79 C278.34,299.52 280.73,301.38 292.17,308.40 C296.40,310.99 300.38,313.75 301.03,314.54 C301.99,315.70 300.02,318.30 290.36,328.61 C286.89,332.31 280.05,339.21 271.63,347.57 ZM 170.81 441.05 C168.36,439.73 167.00,439.70 167.00,441.02 C167.00,442.91 162.26,443.99 159.01,442.85 C156.55,442.00 156.17,441.51 157.08,440.40 C157.78,439.56 159.16,439.25 160.61,439.62 C164.05,440.48 163.56,438.65 160.00,437.31 C158.08,436.58 157.00,435.47 157.00,434.22 C157.00,433.06 154.79,431.05 149.48,427.47 C152.46,429.34 155.72,431.41 159.10,433.58 C163.53,436.42 167.41,438.89 170.81,441.05 ZM 120.00 486.08 C120.00,479.88 120.72,478.00 123.11,478.00 C124.77,478.00 125.00,478.79 125.00,484.50 C125.00,490.77 124.91,491.00 122.50,491.00 C120.17,491.00 120.00,490.66 120.00,486.08 ZM 1066.44 394.62 C1066.09,393.24 1066.32,390.55 1066.95,388.64 C1068.07,385.26 1068.17,385.21 1070.80,386.58 C1072.28,387.35 1074.18,388.05 1075.00,388.13 C1075.82,388.20 1074.93,388.54 1073.00,388.88 C1069.81,389.44 1069.50,389.81 1069.45,392.93 C1069.38,397.04 1067.34,398.19 1066.44,394.62 ZM 137.46 485.25 C138.25,483.19 135.63,480.54 133.58,481.33 C131.71,482.05 131.45,486.64 133.25,487.27 C135.06,487.90 136.75,487.08 137.46,485.25 ZM 1077.67 390.16 C1078.04,388.76 1079.01,388.37 1081.82,388.50 C1083.85,388.60 1085.97,388.41 1086.55,388.09 C1087.12,387.76 1086.45,388.51 1085.05,389.75 C1081.83,392.58 1076.96,392.86 1077.67,390.16 ZM 113.39 489.57 C112.48,487.20 113.77,484.81 115.75,485.19 C116.85,485.40 117.50,486.44 117.50,488.00 C117.50,490.85 114.34,492.06 113.39,489.57 ZM 120.70 475.37 C120.32,474.98 120.00,473.84 120.00,472.83 C120.00,471.53 120.74,471.00 122.57,471.00 C124.66,471.00 125.08,471.42 124.82,473.24 C124.50,475.46 122.06,476.72 120.70,475.37 ZM 167.77 463.19 C168.23,461.80 164.39,461.56 163.55,462.91 C162.96,463.88 164.85,464.99 166.44,464.60 C166.95,464.48 167.55,463.84 167.77,463.19 ZM 967.69 370.36 C966.51,369.18 967.98,368.18 970.09,368.73 C971.67,369.15 971.85,369.48 970.83,370.12 C969.22,371.15 968.53,371.20 967.69,370.36 ZM 212.00 458.00 C212.00,457.45 211.13,457.00 210.06,457.00 C208.99,457.00 207.84,457.45 207.50,458.00 C207.15,458.57 207.99,459.00 209.44,459.00 C210.85,459.00 212.00,458.55 212.00,458.00 ZM 286.17 379.85 C274.55,391.07 262.71,402.39 254.00,410.56 C246.07,417.99 239.46,424.16 233.92,429.28 C249.35,414.96 268.91,396.43 286.17,379.85 ZM 208.40 408.80 C215.11,402.53 230.65,387.64 246.09,372.67 C231.44,386.95 216.89,400.94 208.40,408.80 ZM 112.13 394.61 C122.21,386.23 127.19,382.79 130.96,381.60 C127.60,382.71 122.77,385.90 112.13,394.61 ZM 29.75 487.67 C29.54,487.41 29.35,487.15 29.18,486.90 C27.37,484.26 26.96,482.70 27.10,478.15 C27.05,482.94 27.49,484.43 29.21,486.94 C29.37,487.18 29.55,487.42 29.75,487.67 ZM 278.57 293.28 C278.77,292.79 279.02,292.40 279.32,292.15 C279.04,292.38 278.78,292.78 278.57,293.28 Z" fill="rgba(151,188,216,1)"/>
<path d="M 34.98 492.15 C33.07,491.13 30.47,488.79 29.21,486.94 C27.23,484.04 26.95,482.50 27.15,475.69 L 27.39 467.79 L 52.44 445.95 C121.74,385.54 127.43,381.04 134.50,381.04 C139.23,381.04 143.83,383.72 171.00,402.28 L 196.50 419.70 L 206.44 410.60 C224.05,394.49 278.13,341.65 290.36,328.61 C300.02,318.30 301.99,315.70 301.03,314.54 C300.38,313.75 296.40,310.99 292.17,308.40 C279.77,300.79 278.00,299.25 278.00,296.07 C278.00,294.52 278.60,292.75 279.32,292.15 C281.45,290.38 349.22,266.00 352.01,266.00 C352.86,266.00 354.56,266.70 355.78,267.56 L 358.00 269.11 L 358.00 307.13 L 358.00 345.15 L 355.08 348.08 C351.23,351.93 349.17,351.77 343.89,347.21 C336.89,341.17 331.29,337.00 330.19,337.00 C329.64,337.00 328.10,338.24 326.79,339.75 C318.43,349.36 248.50,416.34 219.25,442.75 C207.90,452.99 204.35,454.98 197.39,454.99 C193.21,455.00 187.73,451.94 159.10,433.58 C145.68,424.97 134.36,418.06 133.93,418.22 C133.16,418.50 121.47,428.69 108.65,440.26 C104.88,443.66 100.60,447.18 99.15,448.08 C97.69,448.98 95.34,451.02 93.93,452.61 C92.51,454.20 84.86,461.21 76.93,468.19 C68.99,475.17 59.87,483.35 56.66,486.37 C48.31,494.23 42.05,495.90 34.98,492.15 ZM 44.00 490.42 C44.00,488.97 38.08,484.15 35.92,483.84 C34.32,483.62 33.01,482.40 32.07,480.25 C30.35,476.35 29.00,476.05 29.00,479.55 C29.00,483.25 31.61,487.72 34.76,489.43 C37.42,490.88 44.00,491.58 44.00,490.42 ZM 921.00 411.00 C921.00,410.45 922.60,410.00 924.56,410.00 C926.68,410.00 927.87,410.40 927.50,411.00 C927.16,411.55 925.56,412.00 923.94,412.00 C922.32,412.00 921.00,411.55 921.00,411.00 ZM 802.06 395.58 C802.03,389.03 802.28,383.94 802.62,384.28 C803.59,385.26 803.88,403.16 802.96,405.44 C802.44,406.72 802.10,402.99 802.06,395.58 ZM 76.75 337.12 C73.77,336.22 71.00,332.54 71.00,329.48 C71.00,322.75 68.80,323.00 128.31,323.00 L 181.95 323.00 L 183.57 325.46 C185.47,328.36 184.79,332.97 182.11,335.40 C180.54,336.82 174.51,337.03 129.17,337.25 C101.02,337.39 77.43,337.33 76.75,337.12 ZM 72.59 281.92 C69.56,278.32 69.34,276.03 71.75,273.08 L 73.50 270.93 L 161.86 270.94 C253.87,270.95 251.78,270.85 254.04,275.07 C255.25,277.33 253.39,282.72 250.96,284.02 C249.81,284.64 216.98,285.00 162.15,285.00 L 75.18 285.00 L 72.59 281.92 ZM 72.59 227.92 C69.56,224.32 69.34,222.02 71.75,219.11 L 73.50 217.00 L 202.98 216.87 L 332.45 216.73 L 334.36 219.28 C336.57,222.24 336.04,225.96 332.97,229.03 C331.03,230.97 329.12,231.00 203.09,231.00 L 75.18 231.00 L 72.59 227.92 ZM 106.10 170.48 C94.06,167.10 82.52,158.23 77.26,148.30 C72.17,138.71 70.68,131.99 71.22,120.95 C71.61,112.74 72.17,110.24 74.89,104.39 C80.40,92.58 89.94,84.77 103.93,80.61 C114.23,77.56 129.26,79.03 139.13,84.07 C143.95,86.53 152.00,93.71 152.00,95.55 C152.00,96.26 149.49,98.99 146.42,101.62 C141.74,105.61 140.56,106.19 139.17,105.20 C129.07,98.01 120.37,95.30 112.17,96.79 C97.84,99.39 89.13,111.39 90.24,127.00 C91.02,138.05 96.33,146.01 106.20,150.94 C116.45,156.06 127.19,154.78 138.35,147.11 C143.59,143.50 143.63,143.51 150.49,149.86 L 155.20 154.22 L 150.85 158.69 C148.19,161.42 143.25,164.73 138.13,167.22 C130.54,170.91 128.90,171.32 120.63,171.64 C114.53,171.88 109.71,171.49 106.10,170.48 ZM 193.58 167.75 C192.07,165.43 161.00,81.74 161.00,79.99 C161.00,79.40 165.07,79.00 170.93,79.00 L 180.86 79.00 L 182.81 84.25 C183.88,87.14 189.11,102.32 194.44,118.00 C199.77,133.68 204.36,147.18 204.65,148.00 C204.94,148.82 207.10,144.10 209.47,137.50 C211.83,130.90 216.81,116.95 220.54,106.50 C224.27,96.05 228.13,85.59 229.12,83.25 L 230.93 79.00 L 240.46 79.00 C245.71,79.00 250.00,79.38 250.00,79.83 C250.00,80.97 218.46,165.27 217.05,167.91 C216.02,169.83 215.06,170.00 205.49,170.00 C195.76,170.00 194.95,169.85 193.58,167.75 ZM 352.50 134.04 L 325.50 133.50 L 319.80 130.20 C316.66,128.39 312.72,125.17 311.03,123.04 C305.17,115.64 305.00,114.29 305.00,74.32 C305.00,43.36 304.77,37.42 303.44,34.70 C301.89,31.53 301.90,31.52 303.72,33.78 C305.10,35.50 306.78,36.14 310.47,36.35 C313.17,36.51 315.56,37.17 315.77,37.82 C315.99,38.47 315.68,39.00 315.08,39.00 C314.33,39.00 314.01,49.31 314.02,73.25 C314.04,104.26 314.22,107.88 315.87,111.50 C318.28,116.77 325.91,123.71 330.16,124.48 C332.00,124.82 347.56,124.96 364.75,124.80 L 396.00 124.50 L 396.00 127.71 C396.00,129.91 396.64,131.27 398.00,132.00 C402.16,134.23 399.87,135.00 389.75,134.79 C384.11,134.67 367.35,134.33 352.50,134.04 Z" fill="rgba(241,245,247,1)"/>
</g>
</svg>