<svg xmlns="http://www.w3.org/2000/svg" width="1536" height="1024" viewBox="0 0 1536 1024" version="1.1"><path d="M 1061.096 455.265 C 1057.200 457.267, 1054.756 461.371, 1054.817 465.809 C 1054.922 473.416, 1060.221 477.686, 1068.413 476.763 C 1073.977 476.136, 1077.571 473.213, 1078.958 468.189 C 1081.527 458.885, 1070.116 450.629, 1061.096 455.265 M 675.336 459.410 C 666.807 462.173, 662.191 464.875, 655.591 470.968 C 649.152 476.913, 643.474 485.774, 640.878 493.928 C 638.037 502.855, 638.002 517.931, 640.804 526.748 C 646.521 544.742, 663.176 558.352, 683.018 561.244 C 694.094 562.858, 707.175 561.180, 715.445 557.083 C 722.015 553.828, 732 545.651, 732 543.525 C 732 542.800, 728.827 539.393, 724.950 535.955 L 717.900 529.705 714.700 532.783 C 712.940 534.476, 709.051 537.085, 706.058 538.580 C 698.643 542.284, 687.098 542.476, 679.202 539.027 C 667.617 533.966, 661.393 522.479, 662.207 507.662 C 663.225 489.134, 674.429 477.681, 691.546 477.671 C 699.675 477.666, 708.290 480.972, 713.648 486.152 L 716.797 489.195 724.896 482.348 C 729.350 478.581, 732.996 475.204, 732.997 474.843 C 733.004 473.157, 722.137 464.694, 716.641 462.104 C 704.413 456.342, 688.094 455.277, 675.336 459.410 M 1184 509 L 1184 561 1194.500 561 L 1205 561 1205 536.648 C 1205 513.037, 1205.069 512.195, 1207.250 508.999 C 1211.902 502.184, 1220.829 500.065, 1227.102 504.287 C 1233.143 508.354, 1233.465 509.906, 1233.828 536.750 L 1234.156 561 1244.078 561 L 1254 561 1254 532.678 C 1254 500.203, 1253.518 497.461, 1246.594 490.547 C 1241.648 485.609, 1236.780 484, 1226.783 484 C 1217.984 484, 1213.869 485.180, 1208.750 489.171 L 1205 492.094 1205 474.547 L 1205 457 1194.500 457 L 1184 457 1184 509 M 817.005 460.500 C 816.590 461.600, 811.212 477.125, 805.053 495 C 792.769 530.651, 790.864 536, 790.451 536 C 790.298 536, 789.256 533.188, 788.134 529.750 C 787.012 526.313, 780.933 509.100, 774.624 491.500 L 763.153 459.500 750.610 459.220 L 738.067 458.941 740.476 465.220 C 748.144 485.212, 762.728 522.826, 768.500 537.500 C 772.179 546.850, 775.671 555.962, 776.262 557.750 L 777.336 561 790.529 561 L 803.722 561 805.960 555.250 C 807.191 552.087, 811.704 539.825, 815.990 528 C 820.275 516.175, 827.656 496.104, 832.391 483.397 C 837.126 470.690, 840.999 459.890, 840.999 459.397 C 840.998 458.904, 835.769 458.500, 829.378 458.500 C 818.676 458.500, 817.699 458.658, 817.005 460.500 M 851.415 458.917 C 851.187 459.146, 851 482.208, 851 510.167 L 851 561 862 561 L 873 561 872.998 509.750 L 872.997 458.500 862.413 458.500 C 856.593 458.500, 851.643 458.688, 851.415 458.917 M 1275 476.500 L 1275 485 1269 485 L 1263 485 1263 493.784 L 1263 502.568 1269 502.379 L 1275 502.190 1275 522.152 C 1275 546.066, 1275.727 549.779, 1281.545 555.597 C 1287.187 561.239, 1293.792 562.744, 1305.160 560.975 C 1309.492 560.301, 1313.236 559.426, 1313.481 559.031 C 1313.725 558.636, 1313.651 554.440, 1313.317 549.708 L 1312.710 541.102 1306.529 541.680 C 1300.656 542.228, 1300.239 542.119, 1298.174 539.494 C 1296.134 536.900, 1296 535.674, 1296 519.544 L 1296 502.359 1304.500 502.805 L 1313 503.251 1313 494.125 L 1313 485 1304.500 485 L 1296 485 1296 476.500 L 1296 468 1285.500 468 L 1275 468 1275 476.500 M 925 486.081 C 922.525 487.201, 919.263 489.301, 917.750 490.746 L 915 493.374 915 489.187 L 915 485 904 485 L 893 485 893 523 L 893 561 903.936 561 L 914.871 561 915.186 536.750 C 915.472 514.684, 915.678 512.205, 917.478 509.229 C 920.263 504.624, 926.866 501.596, 932.288 502.439 C 937.131 503.191, 938.887 504.328, 941.575 508.453 C 943.319 511.128, 943.531 513.747, 943.827 536.236 L 944.155 561.066 954.634 560.783 L 965.114 560.500 965.068 532.817 C 965.026 507.629, 964.842 504.652, 963.018 499.777 C 960.741 493.693, 955.306 487.850, 949.782 485.549 C 944.179 483.215, 930.693 483.504, 925 486.081 M 995.882 485.381 C 985.009 489.266, 979.747 495.787, 979.164 506.100 C 978.828 512.043, 979.114 513.519, 981.331 517.302 C 984.794 523.211, 992.303 527.028, 1007.177 530.440 C 1013.599 531.914, 1019.371 533.742, 1020.004 534.504 C 1022.147 537.087, 1020.722 540.391, 1016.597 542.405 C 1013.078 544.123, 1011.963 544.197, 1005.272 543.157 C 1001.189 542.522, 995.296 540.765, 992.175 539.252 L 986.500 536.500 981.657 543.465 L 976.814 550.431 979.154 552.326 C 983.400 555.764, 992.498 559.806, 998.480 560.912 C 1018.041 564.528, 1035.261 558.146, 1040.652 545.282 C 1042.387 541.142, 1042.381 532.837, 1040.640 528.718 C 1037.405 521.063, 1031.186 517.420, 1014.714 513.528 C 1002.284 510.591, 998.995 509.242, 999.015 507.089 C 999.053 503.135, 1003.001 501, 1010.278 501 C 1015.605 501, 1025.962 503.894, 1028.665 506.137 C 1029.426 506.768, 1030.253 507.080, 1030.503 506.830 C 1031.585 505.749, 1039 493.865, 1038.998 493.216 C 1038.995 491.844, 1030.462 487.174, 1025.068 485.593 C 1018.433 483.647, 1001.086 483.521, 995.882 485.381 M 1112.994 484.934 C 1096.956 489.813, 1086.539 510.401, 1090.509 529.374 C 1093.553 543.923, 1102.725 553.610, 1116.097 556.399 C 1119.619 557.133, 1123.850 557.589, 1125.500 557.413 C 1134.942 556.402, 1137.287 555.664, 1141.657 552.328 L 1146.305 548.781 1145.723 553.687 C 1144.909 560.567, 1143.324 563.504, 1138.691 566.714 C 1134.974 569.290, 1133.948 569.500, 1125.085 569.495 C 1116.571 569.491, 1114.917 569.184, 1110.283 566.745 C 1107.414 565.235, 1104.714 564.005, 1104.283 564.011 C 1103.852 564.017, 1101.729 567.394, 1099.565 571.516 C 1094.989 580.233, 1094.909 580.061, 1105.567 584.384 C 1118.096 589.466, 1136.741 589.554, 1147.599 584.583 C 1158.075 579.787, 1164.923 570.302, 1166.983 557.736 C 1167.456 554.856, 1167.888 537.313, 1167.944 518.750 L 1168.047 485 1157.023 485 L 1146 485 1146 488.547 L 1146 492.094 1142.189 489.031 C 1140.093 487.347, 1136.833 485.526, 1134.945 484.984 C 1130.976 483.846, 1116.679 483.813, 1112.994 484.934 M 1055 523 L 1055 561 1066 561 L 1077 561 1077 523 L 1077 485 1066 485 L 1055 485 1055 523 M 1122.500 502.444 C 1110.397 506.865, 1107.033 524.966, 1116.545 534.478 C 1128.529 546.462, 1148.456 536.443, 1146.797 519.268 C 1145.504 505.873, 1134.317 498.127, 1122.500 502.444" stroke="none" fill="#042455" fill-rule="evenodd"/><path d="M 314.830 350.024 C 312.812 351.092, 310.112 353.436, 308.830 355.233 L 306.500 358.500 306 492.500 C 305.725 566.200, 305.725 634.711, 306 644.747 L 306.500 662.995 320.500 651.175 C 328.200 644.674, 344.850 630.462, 357.500 619.594 C 380.698 599.663, 385.852 595.991, 389.495 596.799 C 392.357 597.433, 398.370 601.746, 415.851 615.701 C 426.386 624.112, 432.054 628, 433.779 628 C 440.096 628, 484.959 586.084, 503.261 563.082 L 509.163 555.664 504.331 552.582 C 495.298 546.819, 493 544.722, 493 542.240 C 493 540.163, 494.748 539.021, 506.556 533.383 C 533.773 520.388, 544.248 516.062, 546.097 517.052 C 548.627 518.406, 548.849 520.770, 549.190 549.979 C 549.551 580.783, 549.827 580.093, 539.911 573.100 C 536.714 570.845, 533.427 569, 532.608 569 C 531.788 569, 528.729 571.772, 525.809 575.160 C 509.206 594.424, 495.860 608.872, 484.789 619.569 C 471.150 632.747, 449.528 651.223, 441.286 656.743 C 433.522 661.943, 434.258 662.269, 409 642.448 C 400.475 635.757, 392.492 629.756, 391.259 629.111 C 388.213 627.518, 385.947 628.817, 372.840 639.672 C 362.621 648.135, 326.049 680.359, 326.353 680.632 C 326.434 680.704, 380.503 681.088, 446.508 681.485 C 535.563 682.021, 567.613 681.912, 570.771 681.062 C 575.684 679.739, 581.246 675.239, 582.892 671.255 C 583.725 669.237, 583.959 637.548, 583.765 552.773 L 583.500 437.045 580.729 434.273 L 577.958 431.500 544.229 431 C 511.168 430.510, 510.437 430.455, 507.321 428.232 C 505.572 426.985, 503.097 424.285, 501.821 422.232 C 499.537 418.559, 499.492 417.948, 499 383.500 L 498.500 348.500 408.500 348.291 C 321.119 348.089, 318.393 348.139, 314.830 350.024 M 506.209 385.981 L 506.500 417.156 510.235 420.578 L 513.971 424 543.660 424 L 573.349 424 570.924 421.279 C 567.195 417.094, 546.211 395.288, 529.016 377.728 C 520.500 369.031, 513.179 361.284, 512.747 360.512 C 512.315 359.740, 510.602 358.140, 508.939 356.957 L 505.917 354.805 506.209 385.981 M 359.500 387.875 C 350.465 390.276, 344.534 395.423, 340.342 404.500 C 333.223 419.914, 339.725 439.408, 354.318 446.404 C 364.318 451.197, 375.371 450.688, 384.304 445.022 C 391.123 440.697, 391.627 439.055, 387.566 434.378 L 384.198 430.500 381.849 432.565 C 375.677 437.992, 368.278 439.567, 361.315 436.936 C 348.750 432.189, 344.972 414.308, 354.384 404.131 C 361.593 396.336, 373.940 395.751, 380.407 402.898 C 381.454 404.054, 382.671 405, 383.113 405 C 383.554 405, 385.113 402.957, 386.576 400.460 C 389.185 396.008, 389.201 395.879, 387.369 393.853 C 383.846 389.958, 378.052 387.806, 370.082 387.433 C 365.912 387.237, 361.150 387.436, 359.500 387.875 M 397.266 388.239 C 397.534 388.933, 399.162 393.100, 400.882 397.500 C 402.603 401.900, 407.549 415.175, 411.874 427 L 419.737 448.500 426.618 448.500 L 433.500 448.500 444.542 418.500 L 455.584 388.500 449.633 388.198 C 445.585 387.993, 443.428 388.307, 442.888 389.182 C 442.451 389.889, 438.810 399.583, 434.797 410.726 C 430.784 421.868, 427.270 430.988, 426.988 430.992 C 426.706 430.997, 422.881 421.334, 418.488 409.520 L 410.500 388.041 406 387.946 C 403.525 387.894, 400.438 387.655, 399.139 387.415 C 397.527 387.117, 396.933 387.379, 397.266 388.239 M 338.667 484.065 C 336.928 486.548, 337.569 489.699, 340.087 491.047 C 341.265 491.677, 375.745 491.935, 436.043 491.765 C 527.896 491.506, 530.196 491.453, 531.581 489.559 C 533.445 487.010, 533.379 486.379, 531 484 C 529.028 482.028, 527.667 482, 434.557 482 C 340.261 482, 340.111 482.003, 338.667 484.065 M 338.992 519.509 C 338.367 520.263, 338.001 522.144, 338.178 523.690 L 338.500 526.500 402.211 526.757 C 465.498 527.013, 465.929 527.001, 467.016 524.970 C 468.485 522.225, 467.428 519.323, 464.714 518.649 C 463.496 518.347, 434.966 518.109, 401.314 518.120 C 350.754 518.136, 339.931 518.378, 338.992 519.509 M 340 556 C 337.801 558.199, 337.541 559.725, 338.978 562 C 339.791 563.287, 345.927 563.541, 382.213 563.789 C 405.471 563.947, 425.506 563.828, 426.735 563.523 C 429.805 562.763, 430.776 558.515, 428.464 555.960 C 426.755 554.072, 425.130 554, 384.345 554 C 343.333 554, 341.937 554.063, 340 556 M 729.571 599.571 C 727.351 601.792, 727.597 605.714, 730.038 607.020 C 732.861 608.531, 735.877 607.338, 736.609 604.420 C 737.251 601.862, 735.430 598.616, 733.887 599.570 C 733.399 599.871, 733 599.641, 733 599.059 C 733 597.520, 731.381 597.762, 729.571 599.571 M 746 623.500 L 746 648 750 648 L 754 648 754 623.500 L 754 599 750 599 L 746 599 746 623.500 M 789 607.485 L 789 615.971 785.750 613.989 C 781.856 611.615, 775.081 611.389, 771.002 613.499 C 769.408 614.323, 766.848 616.644, 765.313 618.656 C 762.977 621.718, 762.471 623.470, 762.203 629.407 C 761.831 637.682, 763.674 642.115, 768.999 645.750 C 773.451 648.789, 781.957 648.879, 786.096 645.932 L 789 643.864 789 645.932 C 789 647.629, 789.628 648, 792.500 648 L 796 648 796 623.500 L 796 599 792.500 599 L 789 599 789 607.485 M 646 624 L 646 648 655.951 648 C 669.356 648, 675.280 646.644, 678.477 642.845 C 682.781 637.730, 681.607 627.733, 676.373 624.932 L 673.967 623.644 676.733 620.756 C 679.051 618.337, 679.500 617.001, 679.500 612.515 C 679.500 602.699, 674.618 600.015, 656.750 600.006 L 646 600 646 624 M 821.456 601.750 C 821.825 602.712, 825.473 608.989, 829.563 615.697 L 837 627.894 837 638.008 L 837 648.121 840.750 647.810 L 844.500 647.500 844.787 637.037 C 844.973 630.291, 845.536 626.029, 846.374 625.037 C 848.245 622.824, 861 601.554, 861 600.647 C 861 600.228, 859.134 600.023, 856.853 600.193 C 852.736 600.498, 852.669 600.567, 847.398 609.985 C 844.478 615.202, 841.723 619.592, 841.276 619.741 C 840.829 619.890, 837.848 615.510, 834.652 610.006 L 828.841 600 824.813 600 C 821.389 600, 820.886 600.262, 821.456 601.750 M 988 623.974 L 988 648 991.465 648 L 994.930 648 995.215 637.750 L 995.500 627.500 1005.500 627.500 L 1015.500 627.500 1015.813 624.250 L 1016.127 621 1005.563 621 L 995 621 995 614 L 995 607 1007.063 607 L 1019.127 607 1018.813 603.750 L 1018.500 600.500 1003.250 600.224 L 988 599.948 988 623.974 M 1067 608.327 C 1067 612.566, 1066.939 612.645, 1064 612.213 C 1061.139 611.793, 1061 611.940, 1061 615.387 C 1061 618.735, 1061.220 619, 1064 619 L 1067 619 1067 630.577 C 1067 642.084, 1067.018 642.172, 1069.974 645.128 C 1072.686 647.839, 1073.456 648.075, 1078.724 647.801 C 1084.410 647.505, 1084.500 647.453, 1084.492 644.500 C 1084.485 641.635, 1084.291 641.500, 1080.207 641.500 C 1077.495 641.500, 1075.583 640.951, 1074.981 640 C 1074.458 639.175, 1074.024 634.112, 1074.015 628.750 L 1074 619 1079 619 L 1084 619 1084 615.500 L 1084 612 1079 612 L 1074 612 1074 608 C 1074 604.095, 1073.917 604, 1070.500 604 C 1067.039 604, 1067 604.049, 1067 608.327 M 654 614.113 L 654 621.226 660.927 620.834 C 669.142 620.370, 672 618.456, 672 613.416 C 672 608.240, 669.956 607, 661.429 607 L 654 607 654 614.113 M 690 626.600 L 690 641.200 693.400 644.600 C 696.354 647.554, 697.452 648, 701.765 648 C 705.216 648, 707.506 647.390, 709.273 646 C 712.386 643.552, 712.816 643.520, 712.639 645.750 C 712.537 647.030, 713.373 647.584, 715.750 647.813 L 719 648.127 719 630 L 719 611.873 715.750 612.187 L 712.500 612.500 712 625 C 711.725 631.875, 711.146 638.046, 710.714 638.713 C 709.480 640.617, 703.015 642.078, 700.880 640.936 C 697.648 639.206, 697 636.388, 697 624.066 L 697 612 693.500 612 L 690 612 690 626.600 M 729 630 L 729 648 732.500 648 L 736 648 736 630 L 736 612 732.500 612 L 729 612 729 630 M 868.520 614.230 C 862.399 617.785, 859.850 623.014, 860.241 631.218 C 860.597 638.668, 862.313 641.886, 867.990 645.750 C 870.541 647.486, 872.712 648, 877.500 648 C 888.122 648, 894.132 642.298, 894.814 631.573 C 895.286 624.171, 892.993 618.851, 887.616 614.872 C 882.985 611.445, 873.845 611.138, 868.520 614.230 M 902.178 627.085 L 902.500 642.169 905.766 645.085 C 908.402 647.438, 909.944 647.999, 913.766 647.994 C 916.370 647.990, 919.789 647.315, 921.364 646.494 C 924.840 644.681, 925.067 644.665, 924.750 646.250 C 924.593 647.033, 925.910 647.617, 928.273 647.812 L 932.047 648.124 931.773 630.312 L 931.500 612.500 928 612.500 L 924.500 612.500 924.393 623.500 C 924.248 638.466, 924.398 637.787, 920.750 640.011 C 916.474 642.618, 914.424 642.515, 911.455 639.545 C 909.109 637.200, 909 636.532, 909 624.545 L 909 612 905.428 612 L 901.856 612 902.178 627.085 M 941.467 613.225 C 941.182 613.968, 941.073 621.985, 941.224 631.038 L 941.500 647.500 945 647.500 L 948.500 647.500 948.586 636.824 C 948.652 628.757, 949.071 625.541, 950.301 623.663 C 951.997 621.075, 958.211 618.394, 959.980 619.488 C 960.609 619.877, 961 618.562, 961 616.059 C 961 612.104, 960.912 612, 957.577 612 C 955.407 612, 953.092 612.893, 951.254 614.440 L 948.354 616.880 948.427 614.690 C 948.486 612.931, 947.860 612.438, 945.243 612.186 C 943.189 611.988, 941.795 612.372, 941.467 613.225 M 1025 626.600 L 1025 641.200 1028.400 644.600 C 1031.394 647.594, 1032.420 648, 1036.996 648 C 1040.645 648, 1043.055 647.385, 1045.096 645.932 L 1048 643.864 1048 645.932 C 1048 647.563, 1048.634 648, 1051 648 L 1054 648 1054 630 L 1054 612 1050.500 612 L 1047 612 1047 623.918 C 1047 630.473, 1046.720 636.565, 1046.379 637.455 C 1045.683 639.268, 1040.949 642, 1038.504 642 C 1037.627 642, 1035.805 640.895, 1034.455 639.545 C 1032.109 637.200, 1032 636.532, 1032 624.545 L 1032 612 1028.500 612 L 1025 612 1025 626.600 M 1092.178 627.085 L 1092.500 642.169 1095.766 645.085 C 1099.878 648.756, 1107.218 649.189, 1111.273 646 C 1114.386 643.552, 1114.816 643.520, 1114.639 645.750 C 1114.531 647.110, 1115.280 647.500, 1118 647.500 C 1120.187 647.500, 1121.462 647.031, 1121.400 646.250 C 1121.345 645.563, 1121.233 637.575, 1121.150 628.500 L 1121 612 1117.500 612 L 1114 612 1114 623.918 C 1114 630.473, 1113.720 636.565, 1113.379 637.455 C 1112.442 639.897, 1107.398 642.138, 1104.485 641.407 C 1099.826 640.237, 1099 637.659, 1099 624.277 L 1099 612 1095.428 612 L 1091.856 612 1092.178 627.085 M 1131 629.937 L 1131 648 1134.500 648 L 1138 648 1138 637.404 C 1138 629.230, 1138.388 626.151, 1139.699 623.933 C 1141.420 621.019, 1146.401 618.512, 1148.227 619.640 C 1149.598 620.488, 1150.966 618.062, 1150.985 614.750 C 1150.999 612.242, 1150.674 612, 1147.298 612 C 1144.541 612, 1142.807 612.764, 1140.509 614.991 L 1137.422 617.983 1137.461 615.241 C 1137.495 612.870, 1137.062 612.458, 1134.250 612.187 L 1131 611.873 1131 629.937 M 1162.318 613.953 C 1157.929 616.622, 1155.281 620.462, 1154.131 625.825 C 1152.335 634.200, 1156.025 643.360, 1162.417 646.394 C 1166.818 648.482, 1176.365 648.488, 1179.891 646.405 C 1182.389 644.930, 1187 639.275, 1187 637.688 C 1187 635.934, 1180.541 637.209, 1177.818 639.500 C 1174.644 642.170, 1169.400 642.820, 1165.945 640.970 C 1164.279 640.079, 1161 635.158, 1161 633.550 C 1161 633.247, 1166.850 633, 1174 633 L 1187 633 1187 628.968 C 1187 623.720, 1185.017 619.225, 1181.058 615.500 C 1178.281 612.886, 1177.061 612.476, 1171.591 612.316 C 1167.030 612.182, 1164.493 612.630, 1162.318 613.953 M 775.500 618.908 C 769.901 621.305, 767.474 629.411, 770.317 636.217 C 771.530 639.120, 772.674 640.122, 775.871 641.079 C 783.657 643.412, 789 638.727, 789 629.565 C 789 626.018, 788.402 624.375, 786.250 622.013 C 783.328 618.806, 778.795 617.496, 775.500 618.908 M 873.213 619.507 C 866.238 622.537, 865.013 633.941, 871.080 639.363 C 873.790 641.784, 874.890 642.144, 878.219 641.697 C 882.953 641.062, 885.544 638.912, 887.041 634.376 C 889.095 628.153, 886.147 620.944, 880.785 619.075 C 877.027 617.765, 877.250 617.752, 873.213 619.507 M 1165.856 619.467 C 1164.402 620.284, 1162.738 622.313, 1162.158 623.976 L 1161.104 627 1170.052 627 C 1178.158 627, 1179 626.822, 1179 625.111 C 1179 619.891, 1171.122 616.508, 1165.856 619.467 M 654 633.894 L 654 641 661.545 641 C 668.300 641, 669.358 640.733, 671.641 638.450 C 673.626 636.465, 674.045 635.300, 673.530 633.200 C 672.376 628.492, 670.558 627.540, 661.970 627.150 L 654 626.788 654 633.894" stroke="none" fill="#0a85eb" fill-rule="evenodd"/></svg>